<svg width="88" height="89" viewBox="0 0 88 89" fill="none" xmlns="http://www.w3.org/2000/svg">
<path d="M35.3535 42.642H6.62415C4.9525 42.642 3.3492 41.9689 2.16634 40.7706C0.983475 39.5723 0.31778 37.9468 0.31543 36.251V7.104C0.317258 5.40783 0.982727 3.78173 2.16564 2.58301C3.34856 1.38429 4.95216 0.710936 6.62415 0.710938H35.3535C37.0255 0.710936 38.6291 1.38429 39.812 2.58301C40.9949 3.78173 41.6604 5.40783 41.6622 7.104V36.251C41.6599 37.9468 40.9941 39.5723 39.8113 40.7706C38.6284 41.9689 37.0251 42.642 35.3535 42.642Z" fill="#5A3D95"/>
<path d="M81.0312 42.931H52.2999C50.6298 42.9286 49.0287 42.2545 47.8478 41.0565C46.6668 39.8585 46.0023 38.2343 46 36.54V7.39307C46.0018 5.69845 46.6661 4.07371 47.8471 2.87524C49.0281 1.67678 50.6294 1.00238 52.2999 1H81.0312C82.702 1.00185 84.3038 1.67599 85.4852 2.87451C86.6666 4.07303 87.3312 5.69811 87.333 7.39307V36.54C87.3306 38.2347 86.6659 39.8592 85.4845 41.0573C84.3031 42.2553 82.7016 42.9292 81.0312 42.931Z" fill="#5A3D95"/>
<path d="M35.0311 88.5562H6.29984C4.6282 88.5538 3.02582 87.8784 1.84462 86.6785C0.663422 85.4785 -1.65287e-06 83.852 0 82.1561V53.0201C-1.65287e-06 51.3243 0.663422 49.6978 1.84462 48.4978C3.02582 47.2978 4.6282 46.6225 6.29984 46.6201H35.0311C36.7028 46.6225 38.3051 47.2978 39.4863 48.4978C40.6675 49.6978 41.331 51.3243 41.331 53.0201V82.1621C41.3294 83.8569 40.6653 85.4819 39.4843 86.6805C38.3032 87.8792 36.7018 88.5538 35.0311 88.5562Z" fill="#5A3D95"/>
<path d="M80.9448 88.5562H52.2134C50.5418 88.5538 48.9394 87.8784 47.7582 86.6785C46.577 85.4785 45.9136 83.852 45.9136 82.1561V53.0201C45.9136 51.3243 46.577 49.6978 47.7582 48.4978C48.9394 47.2978 50.5418 46.6225 52.2134 46.6201H80.9448C82.6167 46.622 84.2196 47.297 85.4012 48.4971C86.5828 49.6971 87.2466 51.324 87.2466 53.0201V82.1621C87.245 83.8572 86.5806 85.4825 85.3991 86.6813C84.2177 87.88 82.6157 88.5543 80.9448 88.5562Z" fill="#5A3D95"/>
<path d="M22.9133 10.3779V19.548H31.785V23.1949H22.9133V32.973H19.064V23.1949H10.1924V19.548H19.064V10.3779H22.9133Z" fill="#8BA7E7"/>
<path d="M57.1719 19.8511H75.9886V23.5H57.1719V19.8511Z" fill="#8BA7E7"/>
<path d="M18.3556 67.5859L10.4697 59.1158L12.7852 56.8159L20.6642 65.2859L28.5452 56.8159L30.8568 59.1158L22.9758 67.5859L30.8568 76.0599L28.5452 78.3599L20.6642 69.8859L12.7852 78.3599L10.4697 76.0599L18.3556 67.5859Z" fill="#8BA7E7"/>
<path d="M55.7847 65.761H77.3724V69.4149H55.7847V65.761ZM64.4385 56.856H68.6771V61.0709H64.4385V56.856ZM64.4385 74.105H68.6771V78.3199H64.4385V74.105Z" fill="#8BA7E7"/>
</svg>
