<svg width="79" height="88" viewBox="0 0 79 88" fill="none" xmlns="http://www.w3.org/2000/svg">
<path d="M39.4721 87.9559C26.5362 87.9559 16.4058 68.7939 16.4058 44.3319C16.4058 19.8699 26.5382 0.709961 39.4721 0.709961C52.4059 0.709961 62.5383 19.8709 62.5383 44.3319C62.5383 68.7929 52.4059 87.9559 39.4721 87.9559Z" fill="#5A3D95"/>
<path d="M58.5864 74.6051C49.5492 74.6051 38.4843 71.3411 27.6096 64.8791C17.841 59.0731 9.81899 51.5511 5.02633 43.6951C0.0513083 35.5381 -0.892981 27.9331 2.36488 22.2841C9.01664 10.7641 30.5254 11.4221 51.3324 23.7841C72.1393 36.1461 83.223 54.8581 76.5732 66.3791C73.4011 71.8821 66.841 74.6051 58.5864 74.6051ZM29.1562 62.2051C48.1603 73.4961 68.2486 74.6701 73.9383 64.8161C79.628 54.9621 68.7927 37.7591 49.7877 26.4661C30.7827 15.1731 10.6943 14.0021 5.00563 23.8531C2.34414 28.4631 3.27373 34.9311 7.62478 42.0631C12.1592 49.4971 19.8055 56.6491 29.1533 62.2041L29.1562 62.2051Z" fill="#8BA7E7"/>
<path d="M39.4709 52.767C37.8264 52.7668 36.219 52.2719 34.8517 51.3449C33.4845 50.4179 32.4189 49.1005 31.7898 47.5591C31.1606 46.0177 30.9962 44.3216 31.3172 42.6854C31.6382 41.0492 32.4303 39.5464 33.5933 38.3668C34.7562 37.1873 36.2378 36.3841 37.8508 36.0589C39.4637 35.7336 41.1355 35.9008 42.6547 36.5394C44.174 37.1781 45.4724 38.2594 46.3859 39.6466C47.2994 41.0339 47.7868 42.6647 47.7866 44.333C47.784 46.5694 46.907 48.7134 45.348 50.2946C43.789 51.8757 41.6754 52.7649 39.4709 52.767Z" fill="#8BA7E7"/>
<path d="M28.7037 14.6667C28.7023 15.6356 28.4179 16.5822 27.8863 17.3871C27.3547 18.192 26.5999 18.8189 25.7172 19.1887C24.8345 19.5585 23.8635 19.6546 22.9271 19.4647C21.9906 19.2749 21.1305 18.8076 20.4557 18.1221C19.7809 17.4365 19.3216 16.5635 19.1358 15.6132C18.95 14.6628 19.046 13.6779 19.4118 12.783C19.7775 11.888 20.3967 11.1232 21.1908 10.5851C21.985 10.047 22.9186 9.75977 23.8736 9.75977C24.5084 9.75976 25.1371 9.88674 25.7236 10.1334C26.31 10.3801 26.8428 10.7416 27.2914 11.1974C27.74 11.6531 28.0956 12.1941 28.338 12.7894C28.5803 13.3847 28.7046 14.0227 28.7037 14.6667Z" fill="#C5C7C8"/>
<path d="M20.2974 74.7571C12.1809 74.7571 5.71739 72.085 2.53838 66.675C-0.767783 61.05 0.118401 53.439 5.03329 45.244C9.76483 37.349 17.7276 29.763 27.4529 23.881C48.1642 11.352 69.6681 10.524 76.4066 21.988C83.1451 33.452 72.2034 52.2549 51.4941 64.7879C40.5524 71.4039 29.3879 74.7571 20.2974 74.7571ZM58.7313 17.014C50.1958 17.014 39.4316 20.248 29.0182 26.545C19.7139 32.175 12.1237 39.3881 7.6445 46.8561C3.34668 54.0221 2.46741 60.4969 5.16439 65.0849C10.929 74.8919 31.0085 73.563 49.9258 62.12C68.8401 50.676 79.5413 33.387 73.7806 23.579C71.1881 19.171 65.7025 17.014 58.7313 17.014Z" fill="#8BA7E7"/>
<path d="M28.7037 72.991C28.7025 73.9598 28.4182 74.9067 27.8868 75.7117C27.3553 76.5167 26.6005 77.1437 25.7179 77.5137C24.8352 77.8836 23.8642 77.9798 22.9277 77.79C21.9911 77.6003 21.131 77.1331 20.4561 76.4476C19.7812 75.7621 19.3217 74.8891 19.1358 73.9387C18.9499 72.9884 19.0459 72.0034 19.4117 71.1084C19.7774 70.2134 20.3965 69.4486 21.1907 68.9104C21.9849 68.3722 22.9185 68.085 23.8736 68.085C24.5084 68.085 25.1369 68.2119 25.7233 68.4585C26.3097 68.7051 26.8424 69.0666 27.291 69.5222C27.7396 69.9779 28.0953 70.5188 28.3377 71.114C28.5801 71.7092 28.7045 72.347 28.7037 72.991Z" fill="#C5C7C8"/>
<path d="M76.5435 43.2159C76.5435 44.1851 76.2603 45.1324 75.7295 45.9382C75.1988 46.744 74.4444 47.3721 73.5618 47.7429C72.6793 48.1138 71.7081 48.2108 70.7711 48.0217C69.8342 47.8327 68.9735 47.3659 68.298 46.6807C67.6225 45.9954 67.1625 45.1224 66.9761 44.1719C66.7897 43.2214 66.8854 42.2361 67.251 41.3407C67.6166 40.4453 68.2356 39.6801 69.0299 39.1417C69.8243 38.6033 70.7581 38.3159 71.7134 38.3159C72.994 38.3175 74.2216 38.8342 75.1271 39.7528C76.0326 40.6714 76.542 41.9169 76.5435 43.2159Z" fill="#C5C7C8"/>
</svg>
