<svg width="95" height="89" viewBox="0 0 95 89" fill="none" xmlns="http://www.w3.org/2000/svg">
<path d="M95.0001 7.03296C94.9983 5.35656 94.341 3.74936 93.1725 2.56396C92.004 1.37857 90.4198 0.711814 88.7673 0.709961H7.06143C5.40895 0.711814 3.82466 1.37857 2.65618 2.56396C1.48769 3.74936 0.83044 5.35656 0.828613 7.03296V58.054H95.0001V7.03296Z" fill="#5A3D95"/>
<path d="M0.828613 60.001V65.5249C0.830441 67.2011 1.48775 68.8082 2.6563 69.9933C3.82484 71.1784 5.40913 71.8446 7.06143 71.8459H35.8953L37.1629 69.646C37.29 69.4258 37.4717 69.2431 37.6899 69.1162C37.9082 68.9894 38.1554 68.9228 38.4069 68.923H57.4238C57.6751 68.9226 57.922 68.9892 58.14 69.1161C58.358 69.243 58.5393 69.4257 58.6658 69.646L59.9354 71.8459H88.7673C90.4196 71.8446 92.0039 71.1784 93.1724 69.9933C94.341 68.8082 94.9983 67.2011 95.0001 65.5249V60.001H0.828613Z" fill="#5A3D95"/>
<path d="M27.6527 86.1338C27.524 86.3558 27.4555 86.6084 27.4541 86.866C27.4528 87.1235 27.5186 87.3768 27.6449 87.6002C27.7713 87.8236 27.9536 88.0091 28.1734 88.1379C28.3933 88.2668 28.6428 88.3343 28.8967 88.3337H66.9343C67.188 88.334 67.4373 88.2662 67.6569 88.1372C67.8764 88.0082 68.0585 87.8227 68.1846 87.5994C68.3107 87.376 68.3763 87.1229 68.3749 86.8655C68.3734 86.6081 68.305 86.3557 68.1764 86.1338L59.9356 71.8457H35.8964L27.6527 86.1338Z" fill="#5A3D95"/>
<path d="M22.6489 41.294C22.3774 41.2942 22.1114 41.2166 21.8815 41.07C21.6517 40.9233 21.4674 40.7137 21.35 40.4654C21.2326 40.217 21.1868 39.94 21.218 39.6664C21.2492 39.3928 21.356 39.1336 21.5262 38.919L30.7773 27.219C31.0164 26.9168 31.3641 26.7232 31.7438 26.6811C32.1235 26.6389 32.5042 26.7515 32.8021 26.994C33.1 27.2366 33.2907 27.5892 33.3323 27.9744C33.3739 28.3596 33.2629 28.7458 33.0239 29.048L23.7727 40.7481C23.6374 40.9183 23.4662 41.0556 23.2718 41.15C23.0773 41.2445 22.8645 41.2937 22.6489 41.294Z" fill="#C5C7C8"/>
<path d="M53.2925 44.637C52.9328 44.6378 52.5858 44.5014 52.3206 44.2549L35.3797 28.555C35.0976 28.2936 34.9294 27.9292 34.9121 27.542C34.8948 27.1549 35.0299 26.7766 35.2875 26.4904C35.5452 26.2042 35.9043 26.0337 36.286 26.0161C36.6676 25.9986 37.0405 26.1356 37.3226 26.397L54.2615 42.097C54.4757 42.2955 54.6258 42.555 54.692 42.8416C54.7583 43.1281 54.7376 43.4282 54.6327 43.7027C54.5279 43.9771 54.3437 44.2131 54.1043 44.3794C53.865 44.5458 53.5817 44.6348 53.2915 44.6349L53.2925 44.637Z" fill="#C5C7C8"/>
<path d="M57.9254 44.2548C57.6548 44.2546 57.3897 44.177 57.1606 44.0308C56.9314 43.8847 56.7475 43.6761 56.6299 43.4288C56.5123 43.1815 56.4657 42.9055 56.4956 42.6327C56.5255 42.3598 56.6305 42.1009 56.7987 41.8858L73.5957 20.3679C73.8329 20.0641 74.1795 19.8683 74.559 19.8237C74.9385 19.7791 75.32 19.8892 75.6194 20.1298C75.9189 20.3705 76.1119 20.7221 76.1559 21.1071C76.1999 21.4922 76.0913 21.8791 75.854 22.1829L59.0551 43.7009C58.9202 43.8737 58.7484 44.0132 58.5528 44.1091C58.3572 44.205 58.1427 44.2549 57.9254 44.2548Z" fill="#C5C7C8"/>
<path d="M20.3342 47.503C19.958 47.5025 19.583 47.4588 19.2164 47.373C17.9907 47.0838 16.9205 46.3299 16.2252 45.2659C15.5298 44.202 15.2619 42.9084 15.4765 41.6505C15.691 40.3926 16.3717 39.2655 17.3791 38.5004C18.3864 37.7353 19.6441 37.3901 20.8943 37.5355C22.1445 37.6809 23.2926 38.3059 24.1031 39.2824C24.9137 40.2589 25.3253 41.513 25.2537 42.7876C25.1821 44.0621 24.6326 45.2605 23.7179 46.1373C22.8032 47.014 21.5926 47.5027 20.3342 47.503ZM20.3342 40.403C19.8292 40.4032 19.3419 40.5918 18.9651 40.9329C18.5883 41.2741 18.3483 41.7439 18.291 42.2529C18.2336 42.7619 18.3628 43.2746 18.654 43.6932C18.9452 44.1118 19.378 44.4072 19.87 44.523C20.3975 44.6379 20.9484 44.5379 21.404 44.2446C21.8596 43.9513 22.1833 43.4882 22.3055 42.955C22.4277 42.4219 22.3385 41.8613 22.0571 41.3942C21.7758 40.9272 21.3249 40.5909 20.8015 40.458C20.6471 40.4228 20.4895 40.405 20.3313 40.405L20.3342 40.403Z" fill="#8BA7E7"/>
<path d="M33.7393 30.135C33.3643 30.1342 32.9906 30.0903 32.6254 30.0041C31.9928 29.8566 31.395 29.584 30.8664 29.2018C30.3378 28.8196 29.8888 28.3352 29.545 27.7766C29.2013 27.218 28.9695 26.5962 28.8631 25.9466C28.7567 25.297 28.7777 24.6325 28.9249 23.9911C29.0716 23.3506 29.3412 22.7455 29.7183 22.2107C30.0955 21.6759 30.5727 21.2218 31.1229 20.8741C31.673 20.5263 32.2853 20.2919 32.9248 20.1842C33.5642 20.0766 34.2183 20.0978 34.8497 20.2466C35.4811 20.3954 36.0774 20.6688 36.6046 21.0514C37.1318 21.434 37.5796 21.9182 37.9223 22.4763C38.2651 23.0345 38.4961 23.6555 38.6022 24.3042C38.7084 24.9529 38.6875 25.6166 38.5408 26.2571C38.2935 27.3605 37.6832 28.3456 36.8106 29.0504C35.9379 29.7553 34.8547 30.1378 33.7393 30.135ZM33.7334 23.0351C33.227 23.0343 32.7382 23.223 32.3603 23.565C31.9825 23.9069 31.7421 24.3781 31.6853 24.8886C31.6284 25.399 31.759 25.9128 32.0521 26.3317C32.3453 26.7506 32.7803 27.0452 33.274 27.1591C33.8041 27.2753 34.358 27.1774 34.8181 26.8861C35.2782 26.5949 35.6083 26.1331 35.7384 25.599C35.8085 25.2928 35.8096 24.9746 35.7417 24.6679C35.6738 24.3612 35.5385 24.074 35.346 23.8277C35.1535 23.5813 34.9087 23.3822 34.6298 23.2451C34.3509 23.1081 34.0452 23.0366 33.7353 23.036L33.7334 23.0351Z" fill="#8BA7E7"/>
<path d="M76.467 23.2071C75.7236 23.208 74.9895 23.0385 74.3196 22.7113C73.6497 22.3842 73.0614 21.9077 72.5984 21.3175C72.1354 20.7274 71.8098 20.0388 71.6459 19.3031C71.482 18.5675 71.484 17.8038 71.6517 17.069C71.9569 15.7808 72.7489 14.6659 73.857 13.9648C74.9651 13.2636 76.3004 13.0324 77.575 13.321C78.7554 13.5981 79.794 14.3061 80.493 15.31C81.1921 16.3138 81.5028 17.5435 81.3659 18.7647C81.229 19.9859 80.6541 21.1134 79.7508 21.9324C78.8474 22.7514 77.6786 23.2047 76.467 23.206V23.2071ZM76.4513 16.1129C76.0845 16.114 75.7246 16.2148 75.4091 16.4047C75.0937 16.5946 74.834 16.8667 74.6573 17.1928C74.4805 17.5189 74.3931 17.887 74.404 18.2589C74.4149 18.6309 74.5238 18.9932 74.7193 19.308C74.8607 19.5401 75.0462 19.7412 75.265 19.8997C75.4839 20.0582 75.7316 20.1708 75.9939 20.231C76.2567 20.2928 76.529 20.3015 76.7951 20.2565C77.0613 20.2115 77.3161 20.1139 77.545 19.969C77.774 19.8242 77.9725 19.635 78.1294 19.4123C78.2862 19.1896 78.3983 18.9377 78.4592 18.671C78.5201 18.4044 78.5287 18.1282 78.4844 17.8582C78.44 17.5882 78.3437 17.3297 78.2009 17.0974C78.0581 16.8652 77.8717 16.6638 77.6521 16.5047C77.4326 16.3455 77.1843 16.2317 76.9215 16.17C76.7676 16.1315 76.6097 16.113 76.4513 16.1129Z" fill="#8BA7E7"/>
<path d="M55.8208 50.6321C55.4447 50.6312 55.0698 50.5884 54.703 50.5042C53.4274 50.2045 52.3214 49.403 51.6282 48.2761C50.935 47.1493 50.7113 45.7892 51.0065 44.4951C51.1526 43.8541 51.4218 43.2485 51.7987 42.713C52.1755 42.1775 52.6526 41.7225 53.2028 41.374C53.753 41.0256 54.3654 40.7905 55.0051 40.6821C55.6449 40.5738 56.2994 40.5944 56.9313 40.7427C57.5632 40.8909 58.1601 41.164 58.688 41.5463C59.2159 41.9286 59.6644 42.4126 60.0079 42.9707C60.3513 43.5288 60.5831 44.1501 60.6899 44.7991C60.7967 45.4481 60.7764 46.1121 60.6303 46.7532C60.3825 47.858 59.7711 48.8441 58.8969 49.5492C58.0226 50.2543 56.9377 50.6362 55.8208 50.6321ZM55.8208 43.5321C55.3566 43.5361 54.907 43.6975 54.5436 43.9907C54.1803 44.2839 53.9241 44.6921 53.8159 45.1501C53.7545 45.4181 53.7461 45.6957 53.7913 45.9669C53.8365 46.2381 53.9343 46.4975 54.079 46.7301C54.2205 46.962 54.4061 47.1631 54.6249 47.3215C54.8437 47.48 55.0914 47.5927 55.3536 47.6531C55.6355 47.7181 55.9278 47.7222 56.2113 47.6649C56.4949 47.6077 56.7634 47.4905 56.9993 47.3209C57.2352 47.1514 57.4332 46.9333 57.5804 46.6809C57.7276 46.4285 57.8207 46.1473 57.8537 45.856C57.8866 45.5646 57.8587 45.2694 57.7717 44.9897C57.6846 44.7101 57.5405 44.4522 57.3486 44.2328C57.1567 44.0134 56.9213 43.8376 56.6579 43.7167C56.3945 43.5958 56.109 43.5326 55.8199 43.5311L55.8208 43.5321Z" fill="#8BA7E7"/>
<path d="M57.4235 68.9248H38.4067C38.1552 68.9247 37.908 68.9914 37.6898 69.1183C37.4715 69.2451 37.2898 69.4277 37.1627 69.6478L35.895 71.8479H59.9352L58.6656 69.6478C58.5391 69.4276 58.3578 69.2449 58.1398 69.118C57.9218 68.9912 57.6748 68.9245 57.4235 68.9248Z" fill="#5A3D95"/>
</svg>
