<svg width="90" height="88" viewBox="0 0 90 88" fill="none" xmlns="http://www.w3.org/2000/svg">
<path d="M68.2723 48.8618C68.8796 45.6695 68.8319 42.3846 68.1323 39.2118L74.8817 36.2598L71.3537 27.9598L64.6034 30.9088C62.8085 28.2148 60.4871 25.9237 57.783 24.1777L60.4958 17.2518L52.2156 13.9067L49.5019 20.8337C46.3547 20.2191 43.1167 20.2667 39.9885 20.9738L37.0806 14.1307L28.8891 17.7058L31.8 24.5548C29.1444 26.3764 26.8857 28.7316 25.164 31.4747L18.3388 28.7228L15.0425 37.1228L21.8706 39.8728C21.2633 43.0673 21.3103 46.3545 22.0086 49.5298L15.2593 52.4828L18.7863 60.7888L25.5376 57.8398C27.3357 60.5319 29.6577 62.8222 32.3609 64.5698L29.6472 71.4938L37.9273 74.8368L40.6441 67.9088C43.7922 68.5225 47.0309 68.4752 50.1604 67.7698L53.0683 74.6207L61.2578 71.0358L58.3499 64.1908C61.0024 62.368 63.2593 60.0141 64.9819 57.2738L71.8091 60.0228L75.1035 51.6228L68.2723 48.8618ZM58.2286 49.6808C57.1934 52.3216 55.4094 54.5917 53.1023 56.204C50.7953 57.8162 48.0687 58.6982 45.2675 58.7384C42.4663 58.7786 39.7163 57.9753 37.3652 56.4299C35.0141 54.8845 33.1675 52.6665 32.059 50.0564C30.9505 47.4463 30.6299 44.5614 31.1377 41.7665C31.6454 38.9715 32.9588 36.3922 34.9117 34.3545C36.8645 32.3168 39.3692 30.9123 42.1089 30.3187C44.8486 29.7252 47.7003 29.9691 50.3033 31.0198C52.0319 31.7169 53.6082 32.7528 54.9421 34.0681C56.2759 35.3834 57.3413 36.9525 58.0772 38.6857C58.8132 40.4188 59.2054 42.282 59.2314 44.1689C59.2574 46.0559 58.9166 47.9294 58.2286 49.6827V49.6808Z" fill="#5A3D95"/>
<path d="M54.7043 44.3717C54.7047 46.3634 54.1228 48.3105 53.0322 49.9667C51.9417 51.6229 50.3915 52.9137 48.5776 53.676C46.7638 54.4383 44.7679 54.6378 42.8423 54.2491C40.9167 53.8605 39.148 52.9013 37.7599 51.4928C36.3718 50.0843 35.4266 48.2898 35.0439 46.3363C34.6612 44.3828 34.8582 42.3581 35.61 40.5182C36.3618 38.6783 37.6346 37.1059 39.2673 35.9999C40.9001 34.8939 42.8196 34.3039 44.7829 34.3047C46.0859 34.3048 47.3761 34.5653 48.5799 35.0713C49.7837 35.5773 50.8775 36.3189 51.7988 37.2537C52.7201 38.1885 53.4509 39.2982 53.9494 40.5195C54.4479 41.7408 54.7045 43.0498 54.7043 44.3717Z" fill="#8BA7E7"/>
<path d="M41.5893 87.8497C41.5529 87.8497 41.5144 87.8497 41.478 87.8497C40.0979 87.7337 38.7178 87.5497 37.3625 87.3017C37.0121 87.2377 36.7013 87.0351 36.4982 86.7385C36.2951 86.4419 36.2165 86.0755 36.2797 85.7202C36.3428 85.3648 36.5425 85.0493 36.8349 84.8433C37.1272 84.6373 37.4883 84.5576 37.8386 84.6216C39.1092 84.8556 40.4074 85.0287 41.6977 85.1357C42.0441 85.1626 42.3667 85.3248 42.5976 85.5882C42.8285 85.8516 42.9497 86.1955 42.9356 86.5477C42.9216 86.8998 42.7734 87.2328 42.5223 87.4764C42.2712 87.72 41.9367 87.8552 41.5893 87.8537V87.8497ZM52.2757 87.3676C51.9431 87.3627 51.6242 87.2328 51.3806 87.0029C51.1371 86.773 50.9864 86.4595 50.9577 86.1234C50.929 85.7872 51.0243 85.4521 51.2252 85.1832C51.4261 84.9142 51.7182 84.7305 52.045 84.6677C53.3265 84.4407 54.608 84.1507 55.8441 83.8017C56.0152 83.7496 56.1948 83.7327 56.3724 83.752C56.5501 83.7713 56.7221 83.8264 56.8785 83.914C57.0349 84.0017 57.1723 84.1201 57.283 84.2624C57.3936 84.4047 57.4751 84.5679 57.5227 84.7426C57.5703 84.9173 57.583 85.0999 57.5602 85.2796C57.5373 85.4593 57.4792 85.6327 57.3894 85.7894C57.2996 85.946 57.1799 86.0829 57.0373 86.192C56.8946 86.3011 56.7319 86.3802 56.5587 86.4246C55.2359 86.7966 53.8726 87.1067 52.5083 87.3497C52.4314 87.3623 52.3536 87.3683 52.2757 87.3676ZM27.4045 84.0197C27.2079 84.0199 27.0137 83.9759 26.8358 83.8907C25.5948 83.2997 24.3596 82.6377 23.1679 81.9217C23.0147 81.8315 22.8806 81.7113 22.7734 81.5682C22.6662 81.4251 22.588 81.262 22.5433 81.0881C22.4986 80.9142 22.4883 80.733 22.513 80.555C22.5377 80.377 22.5969 80.2058 22.6872 80.0512C22.7774 79.8966 22.897 79.7616 23.0389 79.6541C23.1809 79.5466 23.3425 79.4686 23.5143 79.4247C23.6861 79.3809 23.8647 79.372 24.04 79.3986C24.2152 79.4252 24.3834 79.4867 24.535 79.5797C25.6539 80.2517 26.8102 80.8727 27.9763 81.4277C28.2526 81.5592 28.4763 81.7825 28.6107 82.0605C28.7451 82.3385 28.782 82.6546 28.7154 82.9567C28.6488 83.2589 28.4826 83.5289 28.2443 83.7224C28.0059 83.9158 27.7097 84.0201 27.4045 84.0197ZM66.0622 82.2476C65.7678 82.2473 65.4817 82.1487 65.2479 81.9671C65.0142 81.7855 64.8459 81.5309 64.7688 81.2426C64.6918 80.9543 64.7104 80.6484 64.8218 80.3719C64.9331 80.0954 65.1311 79.8638 65.3851 79.7127C66.497 79.0527 67.5961 78.3286 68.6449 77.5596C68.9333 77.3481 69.2926 77.2615 69.6439 77.3188C69.9953 77.3761 70.3098 77.5726 70.5182 77.8652C70.7267 78.1577 70.8122 78.5223 70.7557 78.8787C70.6992 79.2351 70.5055 79.5542 70.2171 79.7657C69.0954 80.5867 67.9263 81.3596 66.7375 82.0656C66.5322 82.1854 66.299 82.2473 66.0622 82.2447V82.2476ZM15.4209 75.4227C15.2436 75.4231 15.0679 75.388 14.904 75.3194C14.7401 75.2508 14.5911 75.1499 14.4658 75.0226C13.4988 74.0226 12.5643 72.9717 11.6958 71.8857C11.4713 71.6054 11.3656 71.246 11.4022 70.8867C11.4388 70.5273 11.6147 70.1975 11.891 69.9697C12.1674 69.7418 12.5216 69.6347 12.8758 69.6718C13.23 69.7089 13.5551 69.8873 13.7797 70.1677C14.5939 71.1857 15.4672 72.1746 16.3771 73.1066C16.5633 73.2976 16.6896 73.5403 16.7401 73.804C16.7906 74.0677 16.7631 74.3407 16.661 74.5886C16.5589 74.8364 16.3867 75.0481 16.1662 75.1968C15.9457 75.3456 15.6867 75.4249 15.4219 75.4246L15.4209 75.4227ZM77.2267 72.5937C76.9725 72.5936 76.7235 72.5201 76.5088 72.3819C76.2942 72.2437 76.1227 72.0463 76.0144 71.8129C75.9061 71.5796 75.8655 71.3198 75.8972 71.0639C75.9289 70.808 76.0317 70.5665 76.1936 70.3676C77.0148 69.3566 77.7984 68.2917 78.522 67.2037C78.6179 67.0498 78.7433 66.917 78.8908 66.8132C79.0382 66.7094 79.2047 66.6366 79.3803 66.5992C79.556 66.5618 79.7372 66.5606 79.9134 66.5955C80.0895 66.6305 80.2569 66.701 80.4057 66.8028C80.5545 66.9046 80.6817 67.0356 80.7797 67.1882C80.8777 67.3407 80.9445 67.5115 80.9762 67.6907C81.008 67.8699 81.0039 68.0538 80.9643 68.2314C80.9248 68.409 80.8504 68.5767 80.7458 68.7247C79.974 69.8867 79.139 71.0247 78.2627 72.0997C78.137 72.2539 77.9794 72.3781 77.801 72.4634C77.6226 72.5488 77.4279 72.5933 77.2306 72.5937H77.2267ZM7.09933 63.1586C6.84119 63.1587 6.58854 63.0834 6.37158 62.9415C6.15461 62.7996 5.98257 62.5972 5.87606 62.3587C5.30137 61.0717 4.78677 59.7586 4.34812 58.4406C4.28714 58.2702 4.26035 58.0892 4.26924 57.9081C4.27813 57.7271 4.32256 57.5497 4.39992 57.3863C4.47728 57.2229 4.58601 57.0767 4.71976 56.9565C4.8535 56.8363 5.00959 56.7443 5.17881 56.6861C5.34803 56.6279 5.52701 56.6045 5.70525 56.6174C5.8835 56.6302 6.05742 56.679 6.21683 56.7609C6.37624 56.8428 6.51794 56.9562 6.63359 57.0944C6.74925 57.2326 6.83655 57.3928 6.89038 57.5656C7.29946 58.7956 7.78246 60.0297 8.32067 61.2347C8.41327 61.4419 8.45318 61.6693 8.43679 61.8962C8.4204 62.1231 8.3482 62.3421 8.22681 62.5334C8.10543 62.7247 7.93874 62.882 7.74195 62.991C7.54515 63.1001 7.32459 63.1574 7.10035 63.1577L7.09933 63.1586ZM84.4255 59.6187C84.2751 59.6195 84.1257 59.5937 83.9839 59.5427C83.8176 59.484 83.6642 59.3927 83.5326 59.2739C83.4011 59.1551 83.2939 59.0111 83.2171 58.8503C83.1404 58.6894 83.0957 58.5149 83.0856 58.3365C83.0754 58.1581 83.0999 57.9794 83.1579 57.8106C83.5068 56.7966 83.8193 55.7557 84.0845 54.7187L84.258 54.0186C84.2963 53.8415 84.3692 53.674 84.4722 53.5258C84.5753 53.3777 84.7065 53.2519 84.8582 53.1559C85.0098 53.06 85.1789 52.9958 85.3553 52.967C85.5318 52.9382 85.7121 52.9454 85.8858 52.9883C86.0595 53.0313 86.2229 53.109 86.3666 53.2169C86.5102 53.3248 86.6312 53.4607 86.7223 53.6166C86.8135 53.7726 86.873 53.9454 86.8974 54.1251C86.9217 54.3047 86.9105 54.4875 86.8643 54.6627L86.6819 55.3986C86.396 56.5106 86.0638 57.6217 85.6962 58.7047C85.6047 58.9717 85.4337 59.2032 85.2067 59.3671C84.9798 59.5311 84.7081 59.6194 84.4295 59.6197L84.4255 59.6187Z" fill="#C5C7C8"/>
<path d="M88.1556 59.6957C87.9182 59.6957 87.6849 59.6319 87.4797 59.5107C87.2745 59.3895 87.1047 59.2153 86.9875 59.0057L85.1619 55.7326L81.7287 57.7906C81.5769 57.8816 81.4091 57.9414 81.2346 57.9665C81.0601 57.9917 80.8825 57.9816 80.7118 57.9371C80.5411 57.8926 80.3808 57.8144 80.2399 57.707C80.099 57.5996 79.9804 57.465 79.8907 57.3111C79.8011 57.1572 79.7422 56.9869 79.7174 56.8099C79.6926 56.6329 79.7025 56.4528 79.7464 56.2796C79.7903 56.1065 79.8674 55.9438 79.9732 55.8009C80.0791 55.658 80.2117 55.5376 80.3634 55.4466L84.9727 52.6827C85.1262 52.591 85.2962 52.5312 85.4727 52.5067C85.6492 52.4822 85.8287 52.4936 86.0009 52.5401C86.173 52.5867 86.3343 52.6674 86.4755 52.7777C86.6166 52.888 86.7347 53.0257 86.8229 53.1827L89.3218 57.6617C89.4374 57.8687 89.4975 58.1027 89.4962 58.3406C89.4948 58.5784 89.432 58.8119 89.314 59.0174C89.196 59.223 89.027 59.3937 88.8238 59.5123C88.6205 59.631 88.3901 59.6935 88.1556 59.6937V59.6957Z" fill="#C5C7C8"/>
<path d="M4.89982 35.5839C4.7943 35.5835 4.68916 35.5711 4.58637 35.5469C4.24063 35.4623 3.9421 35.242 3.75621 34.9344C3.57032 34.6268 3.51226 34.2569 3.59473 33.9059L3.75146 33.27C4.06295 32.052 4.39512 30.9429 4.76674 29.8589C4.88746 29.5233 5.1335 29.2493 5.45165 29.096C5.76981 28.9428 6.1346 28.9226 6.46729 29.0399C6.79999 29.1571 7.07388 29.4023 7.22988 29.7226C7.38588 30.0429 7.41148 30.4126 7.30112 30.7519C6.95217 31.7689 6.64065 32.8079 6.37548 33.8439L6.20395 34.544C6.133 34.8406 5.96583 35.1043 5.72931 35.2929C5.4928 35.4815 5.20067 35.584 4.89982 35.5839ZM84.8432 31.919C84.5632 31.9187 84.2904 31.8294 84.0629 31.6639C83.8354 31.4984 83.6647 31.2648 83.5746 30.9959C83.1596 29.7629 82.6785 28.529 82.1423 27.327C82.0679 27.164 82.026 26.9875 82.0191 26.808C82.0122 26.6285 82.0404 26.4495 82.1021 26.2811C82.1638 26.1127 82.2577 25.9584 82.3784 25.827C82.4992 25.6956 82.6444 25.5897 82.8057 25.5156C82.9669 25.4414 83.1411 25.4003 83.3181 25.3947C83.4951 25.3891 83.6714 25.4192 83.8369 25.4831C84.0024 25.547 84.1538 25.6435 84.2823 25.767C84.4109 25.8906 84.514 26.0388 84.5859 26.2029C85.1586 27.4849 85.6702 28.803 86.1138 30.118C86.2285 30.4596 86.2048 30.8334 86.0478 31.1573C85.8909 31.4811 85.6136 31.7284 85.2769 31.8449C85.1356 31.8931 84.9873 31.9169 84.8383 31.915L84.8432 31.919ZM10.8241 21.9599C10.581 21.9596 10.3426 21.8923 10.1343 21.7652C9.92596 21.6381 9.75565 21.4559 9.64146 21.2382C9.52728 21.0205 9.47353 20.7754 9.486 20.5291C9.49846 20.2828 9.57665 20.0446 9.71222 19.8399C10.485 18.6769 11.321 17.54 12.1963 16.463C12.4256 16.1932 12.7499 16.0253 13.0997 15.9953C13.4496 15.9653 13.7971 16.0755 14.0678 16.3023C14.3385 16.5291 14.5109 16.8544 14.548 17.2086C14.5851 17.5627 14.484 17.9175 14.2663 18.197C13.4452 19.207 12.6616 20.2709 11.937 21.3599C11.8137 21.5442 11.6476 21.695 11.4534 21.7989C11.2592 21.9028 11.0427 21.9568 10.8232 21.956L10.8241 21.9599ZM77.7311 18.8979C77.5314 18.8986 77.334 18.8541 77.1534 18.7676C76.9728 18.6811 76.8136 18.5547 76.6872 18.3979C75.873 17.3799 74.9986 16.3919 74.0898 15.4589C73.9659 15.3318 73.8679 15.1812 73.8014 15.0157C73.7349 14.8501 73.7012 14.673 73.7022 14.4942C73.7032 14.3154 73.7389 14.1386 73.8073 13.9738C73.8756 13.8091 73.9753 13.6597 74.1006 13.534C74.2259 13.4083 74.3744 13.3089 74.5376 13.2414C74.7008 13.1739 74.8754 13.1398 75.0516 13.1408C75.2278 13.1418 75.4021 13.178 75.5645 13.2474C75.727 13.3167 75.8743 13.4179 75.9982 13.545C76.9671 14.545 77.8997 15.596 78.7701 16.68C78.9301 16.8795 79.0312 17.121 79.0614 17.3764C79.0917 17.6318 79.05 17.8907 78.9412 18.1231C78.8323 18.3555 78.6608 18.5518 78.4464 18.6893C78.2321 18.8268 77.9837 18.8998 77.7301 18.9L77.7311 18.8979ZM21.0383 11.263C20.7543 11.2639 20.4773 11.1732 20.2472 11.0041C20.0172 10.835 19.846 10.5962 19.7583 10.3221C19.6706 10.048 19.6709 9.75273 19.7592 9.47882C19.8476 9.20491 20.0193 8.96645 20.2498 8.79791C21.3715 7.97691 22.5406 7.20598 23.7294 6.49798C24.0366 6.31631 24.4023 6.26583 24.7462 6.35773C25.09 6.44962 25.3838 6.67635 25.5629 6.98798C25.742 7.2996 25.7917 7.67065 25.7011 8.01947C25.6105 8.36829 25.3871 8.66629 25.0799 8.84796C23.968 9.50696 22.8708 10.2309 21.821 11.0009C21.593 11.1683 21.3189 11.259 21.0374 11.2599L21.0383 11.263ZM66.6129 9.17291C66.3731 9.17264 66.1378 9.10673 65.9318 8.98199C64.8199 8.31299 63.6646 7.69195 62.4906 7.13495C62.1685 6.98152 61.9197 6.70458 61.7989 6.36505C61.6781 6.02552 61.6952 5.65115 61.8464 5.3244C61.9976 4.99765 62.2706 4.7453 62.6053 4.62274C62.94 4.50019 63.309 4.51753 63.6311 4.67096C64.877 5.26396 66.1132 5.92691 67.299 6.64191C67.5527 6.79393 67.7501 7.02656 67.8604 7.30377C67.9707 7.58098 67.9879 7.88734 67.9094 8.17548C67.8308 8.46361 67.6609 8.71746 67.4258 8.89777C67.1908 9.07807 66.9037 9.17476 66.609 9.17291H66.6129ZM34.2601 4.81695C33.9355 4.81674 33.622 4.69717 33.3777 4.48041C33.1334 4.26365 32.9749 3.96441 32.9314 3.63812C32.888 3.31183 32.9626 2.98061 33.1415 2.70587C33.3203 2.43113 33.5913 2.23153 33.9042 2.14398C35.227 1.77298 36.5903 1.46193 37.9546 1.21893C38.3007 1.16682 38.6532 1.25385 38.937 1.46149C39.2208 1.66913 39.4135 1.981 39.4741 2.33063C39.5346 2.68025 39.4582 3.04 39.2611 3.33331C39.064 3.62662 38.7618 3.8303 38.4189 3.90094C37.1374 4.12794 35.856 4.419 34.6198 4.768C34.5021 4.79908 34.3807 4.81413 34.259 4.81293L34.2601 4.81695ZM52.8648 3.96796C52.7848 3.96806 52.705 3.96072 52.6263 3.94598C51.3547 3.71198 50.0575 3.53894 48.7671 3.43194C48.4124 3.40237 48.0837 3.23102 47.8535 2.95563C47.6232 2.68023 47.5103 2.32334 47.5394 1.96344C47.5686 1.60354 47.7374 1.27014 48.0089 1.03656C48.2804 0.802983 48.6322 0.688384 48.987 0.717956C50.367 0.833956 51.747 1.01793 53.1024 1.26593C53.4297 1.32901 53.7222 1.51335 53.9231 1.78302C54.1239 2.05269 54.2187 2.38851 54.1891 2.72516C54.1594 3.0618 54.0075 3.37523 53.7628 3.60455C53.5181 3.83388 53.198 3.96272 52.8648 3.966V3.96796Z" fill="#C5C7C8"/>
<path d="M4.81131 36.0649C4.6944 36.0653 4.57798 36.0495 4.4653 36.0179C4.29328 35.9715 4.13206 35.8909 3.99108 35.7807C3.8501 35.6705 3.73218 35.5329 3.64417 35.3759L1.14535 30.8969C0.969802 30.5829 0.924388 30.2109 1.01913 29.863C1.11387 29.515 1.34102 29.2195 1.65056 29.0414C1.9601 28.8633 2.32668 28.8173 2.66969 28.9134C3.0127 29.0095 3.30401 29.2399 3.47956 29.5539L5.30514 32.8279L8.74048 30.7689C9.04701 30.5853 9.41283 30.5329 9.75751 30.623C10.1022 30.7131 10.3975 30.9385 10.5784 31.2494C10.7593 31.5604 10.811 31.9315 10.7222 32.2812C10.6334 32.6308 10.4112 32.9303 10.1047 33.1138L5.49442 35.8769C5.28748 36.0006 5.05152 36.0656 4.81131 36.0649Z" fill="#C5C7C8"/>
<path d="M44.7995 39.8689C44.9512 39.8678 45.0981 39.9233 45.212 40.0249C45.326 40.1265 45.3992 40.2671 45.4176 40.4199L46.3885 44.403H48.6232L49.6227 40.2568C49.6324 40.1875 49.6574 40.1214 49.6958 40.0632C49.7342 40.0051 49.7851 39.9564 49.8445 39.9209C49.9539 39.8645 50.0798 39.851 50.1984 39.8829C50.329 39.9123 50.4456 39.9864 50.5286 40.0929C50.5657 40.1518 50.5885 40.2188 50.595 40.2883C50.6015 40.3579 50.5916 40.428 50.5661 40.4929L49.5804 44.3999H50.9751C51.0181 44.3954 51.0615 44.403 51.1006 44.4216C51.1397 44.4403 51.1729 44.4694 51.1969 44.5059C51.2379 44.5885 51.2573 44.6805 51.2531 44.7729C51.2569 44.8609 51.2375 44.9481 51.1969 45.0259C51.1733 45.0629 51.1402 45.0925 51.1011 45.1116C51.0619 45.1306 51.0183 45.1384 50.9751 45.1339H49.398L48.1776 50.0409C48.1478 50.2079 48.0592 50.3582 47.9282 50.4639C47.8177 50.5481 47.683 50.5931 47.5448 50.5919C47.4071 50.5921 47.2729 50.5472 47.1623 50.4639C47.0321 50.3575 46.9437 50.2075 46.913 50.0409L45.7222 45.1339H43.8414L42.6191 50.0409C42.5897 50.2083 42.5005 50.3589 42.3687 50.4639C42.2592 50.548 42.1255 50.593 41.9882 50.5919C41.8504 50.5923 41.7162 50.5473 41.6057 50.4639C41.4744 50.3582 41.3852 50.208 41.3543 50.0409L40.1212 45.1339H38.5923C38.5479 45.138 38.5032 45.1302 38.4627 45.1112C38.4222 45.0923 38.3874 45.0628 38.3616 45.0259C38.3177 44.9492 38.2955 44.8617 38.2976 44.7729C38.2951 44.6797 38.3172 44.5875 38.3616 44.5059C38.3878 44.4695 38.4228 44.4407 38.4632 44.4221C38.5037 44.4035 38.5481 44.3959 38.5923 44.3999H39.9428L38.9728 40.4929C38.9469 40.4281 38.9369 40.3578 38.9434 40.2882C38.9499 40.2186 38.9729 40.1516 39.0103 40.0929C39.0933 39.9864 39.2099 39.9123 39.3405 39.8829C39.4037 39.8621 39.4705 39.8556 39.5364 39.8638C39.6023 39.8719 39.6657 39.8947 39.722 39.9303C39.7784 39.9659 39.8264 40.0135 39.8626 40.0699C39.8989 40.1264 39.9225 40.1902 39.9319 40.2568L40.9177 44.403H43.1661L44.1834 40.4199C44.1985 40.2661 44.2705 40.1238 44.3848 40.0216C44.4991 39.9194 44.6472 39.8648 44.7995 39.8689ZM42.9907 45.1368H41.0951L42.0237 48.9989L42.9907 45.1368ZM45.5536 44.403L44.8015 41.3319L44.0247 44.403H45.5536ZM48.4635 45.1368H46.5817L47.5399 48.9839L48.4635 45.1368Z" fill="white"/>
</svg>
