<svg width="94" height="88" viewBox="0 0 94 88" fill="none" xmlns="http://www.w3.org/2000/svg">
<path d="M61.7747 45.5771H46.2681V81.9261H61.7747V45.5771Z" fill="white"/>
<path d="M16.2505 85.3239C16.2518 85.8157 16.445 86.287 16.7878 86.6348C17.1306 86.9825 17.5952 87.1785 18.08 87.1798H31.0662V15.9258H16.2505V85.3239Z" fill="#5A3D95"/>
<path d="M66.9163 38.7488C66.9163 38.9949 66.82 39.231 66.6484 39.405C66.4769 39.5791 66.2442 39.6768 66.0016 39.6768C65.759 39.6768 65.5263 39.5791 65.3548 39.405C65.1832 39.231 65.0868 38.9949 65.0868 38.7488V15.9258H56.2151V38.7488C56.2151 38.9949 56.1188 39.231 55.9472 39.405C55.7757 39.5791 55.543 39.6768 55.3004 39.6768C55.0578 39.6768 54.8251 39.5791 54.6536 39.405C54.482 39.231 54.3857 38.9949 54.3857 38.7488V15.9258H51.3673V38.7488C51.3673 38.9949 51.2709 39.231 51.0994 39.405C50.9278 39.5791 50.6952 39.6768 50.4526 39.6768C50.21 39.6768 49.9772 39.5791 49.8057 39.405C49.6341 39.231 49.5378 38.9949 49.5378 38.7488V15.9258H40.7578V87.1798H75.8767C76.3614 87.1782 76.8257 86.9822 77.1683 86.6344C77.5109 86.2866 77.7039 85.8155 77.7052 85.3239V15.9238H66.9163V38.7488ZM58.8688 77.6228C58.8675 78.1146 58.6743 78.5859 58.3315 78.9337C57.9887 79.2815 57.524 79.4774 57.0392 79.4788H51.0036C50.5187 79.4774 50.0542 79.2815 49.7113 78.9337C49.3685 78.5859 49.1754 78.1146 49.1741 77.6228V49.8818C49.1754 49.39 49.3685 48.9187 49.7113 48.5709C50.0542 48.2231 50.5187 48.0271 51.0036 48.0258H57.0392C57.524 48.0271 57.9887 48.2231 58.3315 48.5709C58.6743 48.9187 58.8675 49.39 58.8688 49.8818V77.6228Z" fill="#5A3D95"/>
<path d="M91.6091 0.709961H2.34859C1.86377 0.711281 1.39914 0.907284 1.05631 1.25507C0.713492 1.60285 0.520344 2.07414 0.519043 2.56598V30.3989C0.520344 30.8908 0.713492 31.3622 1.05631 31.71C1.39914 32.0577 1.86377 32.2537 2.34859 32.255H13.6846V23.163H10.1862C9.90146 23.1622 9.6286 23.0471 9.42726 22.8429C9.22593 22.6387 9.11248 22.3618 9.1117 22.073V10.8929C9.11248 10.6041 9.22593 10.3273 9.42726 10.123C9.6286 9.9188 9.90146 9.80377 10.1862 9.80298H83.7705C84.0552 9.80377 84.3281 9.9188 84.5294 10.123C84.7308 10.3273 84.8442 10.6041 84.845 10.8929V22.073C84.8442 22.3618 84.7308 22.6387 84.5294 22.8429C84.3281 23.0471 84.0552 23.1622 83.7705 23.163H80.2721V32.255H91.6081C92.0929 32.2537 92.5576 32.0577 92.9004 31.71C93.2432 31.3622 93.4364 30.8908 93.4377 30.3989V2.56598C93.4364 2.07432 93.2433 1.60312 92.9007 1.25537C92.5581 0.907618 92.0938 0.711544 91.6091 0.709961Z" fill="#8BA7E7"/>
</svg>
