<svg width="76" height="89" viewBox="0 0 76 89" fill="none" xmlns="http://www.w3.org/2000/svg">
<path d="M38.5024 88.043C38.5024 88.043 76.8575 73.543 74.9481 16.586C74.9481 16.586 60.5199 12.226 55.1289 10.016C49.4402 7.68996 37.5768 0.709961 37.5768 0.709961C37.5768 0.709961 26.1551 7.55096 18.7492 10.777C12.7702 13.3313 6.55582 15.2769 0.197651 16.585C0.197651 16.585 -3.35103 73.0629 38.5014 88.0419" fill="#5A3D95"/>
<path d="M67.4734 22.1448C67.4734 22.1448 55.9314 18.6558 51.6168 16.8898C47.0657 15.0238 37.574 9.44385 37.574 9.44385C37.574 9.44385 28.4392 14.9168 22.5139 17.4948C17.7311 19.5384 12.7604 21.0957 7.6746 22.1438C7.6746 22.1438 4.8327 67.3248 38.3153 79.3078C38.3153 79.3078 69.0013 67.7118 67.4734 22.1448Z" fill="white"/>
<path d="M42.1578 40.8699C41.8912 40.8691 41.6358 40.761 41.4477 40.5694C41.2595 40.3778 41.154 40.1183 41.1543 39.8479V30.4159C41.152 29.5174 40.7992 28.6564 40.173 28.021C39.5469 27.3856 38.6983 27.0275 37.8126 27.0249H37.3276C36.8887 27.0249 36.4541 27.1126 36.0486 27.283C35.6431 27.4534 35.2747 27.7032 34.9644 28.0181C34.6541 28.333 34.408 28.7069 34.2401 29.1183C34.0722 29.5297 33.9858 29.9706 33.986 30.4159V39.8509C33.9902 39.9876 33.9673 40.1237 33.9186 40.2513C33.87 40.3788 33.7966 40.4952 33.7028 40.5934C33.6089 40.6916 33.4966 40.7697 33.3725 40.823C33.2483 40.8763 33.1149 40.9038 32.9801 40.9038C32.8453 40.9038 32.7118 40.8763 32.5876 40.823C32.4635 40.7697 32.3511 40.6916 32.2573 40.5934C32.1635 40.4952 32.0901 40.3788 32.0415 40.2513C31.9928 40.1237 31.9699 39.9876 31.9741 39.8509V30.4159C31.9741 28.9755 32.5382 27.5941 33.5421 26.5756C34.5461 25.5571 35.9078 24.9849 37.3276 24.9849H37.8097C39.2294 24.9849 40.5909 25.5569 41.5949 26.5752C42.5988 27.5935 43.1629 28.9747 43.1632 30.4149V39.8509C43.1629 40.1212 43.0569 40.3804 42.8684 40.5715C42.6799 40.7625 42.4243 40.8699 42.1578 40.8699Z" fill="#8BA7E7"/>
<path d="M28.1413 38.9858H46.9985C47.158 38.9858 47.3109 39.0501 47.4237 39.1645C47.5364 39.2789 47.5998 39.4341 47.5998 39.5958V54.9358C47.5998 55.0974 47.5366 55.2523 47.424 55.3665C47.3114 55.4807 47.1587 55.5448 46.9995 55.5448H28.1423C27.9828 55.5448 27.8299 55.4806 27.7171 55.3662C27.6044 55.2518 27.541 55.0966 27.541 54.9348V39.5948C27.541 39.4333 27.6043 39.2784 27.7168 39.1642C27.8294 39.05 27.9821 38.9858 28.1413 38.9858Z" fill="#8BA7E7"/>
</svg>
