<svg width="1281" height="324" viewBox="0 0 1281 324" fill="none" xmlns="http://www.w3.org/2000/svg">
<path d="M603.122 48.5L603.122 174.5" stroke="#999999"/>
<path d="M449.266 173.5L449.266 207.5" stroke="#999999"/>
<path d="M795.825 173.5L795.825 207.5" stroke="#999999"/>
<rect x="495.144" y="0.5" width="224.184" height="48" fill="white"/>
<rect x="495.644" y="1" width="223.184" height="47" stroke="#2B2B2B" stroke-opacity="0.431"/>
<path d="M709.187 40.5H707.54V34.2949C706.938 34.8574 706.229 35.2734 705.413 35.543V34.0488C705.843 33.9082 706.31 33.6426 706.813 33.252C707.317 32.8574 707.663 32.3984 707.851 31.875H709.187V40.5Z" fill="#FE1616" fill-opacity="0.4"/>
<path d="M588.207 29.5V19.4785H590.23V23.4229H594.195V19.4785H596.219V29.5H594.195V25.1182H590.23V29.5H588.207ZM597.859 25.7676C597.859 25.1296 598.017 24.512 598.331 23.915C598.646 23.318 599.09 22.8623 599.664 22.5479C600.243 22.2334 600.888 22.0762 601.599 22.0762C602.697 22.0762 603.597 22.4339 604.299 23.1494C605.001 23.8604 605.352 24.7604 605.352 25.8496C605.352 26.9479 604.996 27.8594 604.285 28.584C603.579 29.304 602.688 29.6641 601.612 29.6641C600.947 29.6641 600.311 29.5137 599.705 29.2129C599.104 28.9121 598.646 28.4723 598.331 27.8936C598.017 27.3102 597.859 26.6016 597.859 25.7676ZM599.828 25.8701C599.828 26.5902 599.999 27.1416 600.341 27.5244C600.683 27.9072 601.104 28.0986 601.605 28.0986C602.107 28.0986 602.526 27.9072 602.863 27.5244C603.205 27.1416 603.376 26.5856 603.376 25.8564C603.376 25.1455 603.205 24.5986 602.863 24.2158C602.526 23.833 602.107 23.6416 601.605 23.6416C601.104 23.6416 600.683 23.833 600.341 24.2158C599.999 24.5986 599.828 25.1501 599.828 25.8701ZM606.719 22.2402H608.489V23.2314C609.123 22.4613 609.877 22.0762 610.752 22.0762C611.217 22.0762 611.62 22.1719 611.962 22.3633C612.304 22.5547 612.584 22.8441 612.803 23.2314C613.122 22.8441 613.466 22.5547 613.835 22.3633C614.204 22.1719 614.598 22.0762 615.018 22.0762C615.551 22.0762 616.002 22.1855 616.371 22.4043C616.74 22.6185 617.016 22.9352 617.198 23.3545C617.33 23.6644 617.396 24.1657 617.396 24.8584V29.5H615.476V25.3506C615.476 24.6305 615.41 24.1657 615.277 23.9561C615.1 23.6826 614.826 23.5459 614.457 23.5459C614.188 23.5459 613.935 23.6279 613.698 23.792C613.461 23.9561 613.29 24.1976 613.186 24.5166C613.081 24.8311 613.028 25.3301 613.028 26.0137V29.5H611.107V25.5215C611.107 24.8151 611.073 24.3594 611.005 24.1543C610.937 23.9492 610.829 23.7965 610.684 23.6963C610.542 23.596 610.349 23.5459 610.103 23.5459C609.806 23.5459 609.54 23.6257 609.303 23.7852C609.066 23.9447 608.895 24.1748 608.79 24.4756C608.69 24.7764 608.64 25.2754 608.64 25.9727V29.5H606.719V22.2402ZM623.521 27.1895L625.436 27.5107C625.189 28.2126 624.8 28.748 624.267 29.1172C623.738 29.4818 623.075 29.6641 622.277 29.6641C621.015 29.6641 620.081 29.2516 619.475 28.4268C618.996 27.766 618.757 26.932 618.757 25.9248C618.757 24.7217 619.071 23.7806 619.7 23.1016C620.329 22.418 621.124 22.0762 622.086 22.0762C623.166 22.0762 624.018 22.4339 624.643 23.1494C625.267 23.8604 625.565 24.9518 625.538 26.4238H620.726C620.739 26.9935 620.894 27.4378 621.19 27.7568C621.487 28.0713 621.856 28.2285 622.298 28.2285C622.599 28.2285 622.852 28.1465 623.057 27.9824C623.262 27.8184 623.417 27.554 623.521 27.1895ZM623.631 25.248C623.617 24.6921 623.474 24.2705 623.2 23.9834C622.927 23.6917 622.594 23.5459 622.202 23.5459C621.783 23.5459 621.437 23.6986 621.163 24.0039C620.89 24.3092 620.755 24.724 620.76 25.248H623.631Z" fill="#545351"/>
<rect x="693" y="195.5" width="205.673" height="48" fill="white"/>
<rect x="693.5" y="196" width="204.673" height="47" stroke="#2B2B2B" stroke-opacity="0.431"/>
<path d="M888.059 235.5V233.771H884.543V232.33L888.27 226.875H889.652V232.324H890.719V233.771H889.652V235.5H888.059ZM888.059 232.324V229.389L886.084 232.324H888.059Z" fill="#FE1616" fill-opacity="0.4"/>
<path d="M755.318 224.5H753.117L752.242 222.224H748.236L747.409 224.5H745.263L749.166 214.479H751.306L755.318 224.5ZM751.593 220.535L750.212 216.816L748.858 220.535H751.593ZM756.33 217.24H758.121V218.307C758.354 217.942 758.668 217.646 759.064 217.418C759.461 217.19 759.901 217.076 760.384 217.076C761.227 217.076 761.942 217.407 762.53 218.067C763.118 218.728 763.412 219.649 763.412 220.829C763.412 222.041 763.116 222.985 762.523 223.659C761.931 224.329 761.213 224.664 760.37 224.664C759.969 224.664 759.604 224.584 759.276 224.425C758.953 224.265 758.611 223.992 758.251 223.604V227.262H756.33V217.24ZM758.23 220.747C758.23 221.563 758.392 222.167 758.716 222.559C759.039 222.946 759.434 223.14 759.898 223.14C760.345 223.14 760.716 222.962 761.013 222.606C761.309 222.246 761.457 221.659 761.457 220.843C761.457 220.082 761.304 219.517 760.999 219.147C760.694 218.778 760.315 218.594 759.864 218.594C759.395 218.594 759.005 218.776 758.695 219.141C758.385 219.501 758.23 220.036 758.23 220.747ZM764.889 217.24H766.68V218.307C766.912 217.942 767.227 217.646 767.623 217.418C768.02 217.19 768.459 217.076 768.942 217.076C769.785 217.076 770.501 217.407 771.089 218.067C771.677 218.728 771.971 219.649 771.971 220.829C771.971 222.041 771.674 222.985 771.082 223.659C770.49 224.329 769.772 224.664 768.929 224.664C768.528 224.664 768.163 224.584 767.835 224.425C767.511 224.265 767.17 223.992 766.81 223.604V227.262H764.889V217.24ZM766.789 220.747C766.789 221.563 766.951 222.167 767.274 222.559C767.598 222.946 767.992 223.14 768.457 223.14C768.904 223.14 769.275 222.962 769.571 222.606C769.868 222.246 770.016 221.659 770.016 220.843C770.016 220.082 769.863 219.517 769.558 219.147C769.252 218.778 768.874 218.594 768.423 218.594C767.953 218.594 767.564 218.776 767.254 219.141C766.944 219.501 766.789 220.036 766.789 220.747ZM773.502 224.5V214.479H775.423V224.5H773.502ZM776.489 217.24H778.533L780.27 222.395L781.965 217.24H783.954L781.391 224.227L780.933 225.491C780.764 225.915 780.602 226.239 780.447 226.462C780.297 226.685 780.121 226.865 779.921 227.002C779.725 227.143 779.481 227.253 779.189 227.33C778.902 227.408 778.576 227.446 778.212 227.446C777.843 227.446 777.48 227.408 777.125 227.33L776.954 225.826C777.255 225.885 777.526 225.915 777.768 225.915C778.214 225.915 778.545 225.783 778.759 225.519C778.973 225.259 779.137 224.926 779.251 224.521L776.489 217.24ZM788.589 221.239L790.558 221.048C790.676 221.709 790.915 222.194 791.275 222.504C791.64 222.814 792.13 222.969 792.745 222.969C793.397 222.969 793.887 222.832 794.215 222.559C794.548 222.281 794.714 221.957 794.714 221.588C794.714 221.351 794.643 221.15 794.502 220.986C794.365 220.818 794.124 220.672 793.777 220.549C793.54 220.467 793 220.321 792.157 220.111C791.073 219.842 790.312 219.512 789.874 219.12C789.259 218.569 788.951 217.896 788.951 217.104C788.951 216.593 789.095 216.117 789.382 215.675C789.674 215.228 790.09 214.889 790.633 214.656C791.18 214.424 791.838 214.308 792.608 214.308C793.866 214.308 794.812 214.583 795.445 215.135C796.083 215.686 796.418 216.422 796.45 217.343L794.427 217.432C794.34 216.917 794.153 216.548 793.866 216.324C793.584 216.096 793.158 215.982 792.588 215.982C792 215.982 791.54 216.103 791.207 216.345C790.993 216.5 790.886 216.707 790.886 216.967C790.886 217.204 790.986 217.407 791.187 217.575C791.442 217.789 792.062 218.013 793.046 218.245C794.03 218.478 794.757 218.719 795.227 218.97C795.701 219.216 796.07 219.555 796.334 219.988C796.603 220.417 796.737 220.948 796.737 221.581C796.737 222.155 796.578 222.693 796.259 223.194C795.94 223.696 795.489 224.069 794.905 224.315C794.322 224.557 793.595 224.678 792.725 224.678C791.458 224.678 790.485 224.386 789.806 223.803C789.127 223.215 788.721 222.36 788.589 221.239ZM802.63 222.189L804.544 222.511C804.298 223.213 803.908 223.748 803.375 224.117C802.846 224.482 802.183 224.664 801.386 224.664C800.123 224.664 799.189 224.252 798.583 223.427C798.104 222.766 797.865 221.932 797.865 220.925C797.865 219.722 798.18 218.781 798.809 218.102C799.438 217.418 800.233 217.076 801.194 217.076C802.274 217.076 803.127 217.434 803.751 218.149C804.375 218.86 804.674 219.952 804.646 221.424H799.834C799.848 221.993 800.003 222.438 800.299 222.757C800.595 223.071 800.964 223.229 801.406 223.229C801.707 223.229 801.96 223.146 802.165 222.982C802.37 222.818 802.525 222.554 802.63 222.189ZM802.739 220.248C802.726 219.692 802.582 219.271 802.309 218.983C802.035 218.692 801.702 218.546 801.311 218.546C800.891 218.546 800.545 218.699 800.271 219.004C799.998 219.309 799.864 219.724 799.868 220.248H802.739ZM808.058 224.5H806.137V217.24H807.921V218.272C808.226 217.785 808.5 217.464 808.741 217.309C808.987 217.154 809.265 217.076 809.575 217.076C810.013 217.076 810.434 217.197 810.84 217.438L810.245 219.113C809.922 218.904 809.621 218.799 809.343 218.799C809.074 218.799 808.846 218.874 808.659 219.024C808.472 219.17 808.324 219.437 808.215 219.824C808.11 220.212 808.058 221.023 808.058 222.258V224.5ZM813.67 224.5L810.744 217.24H812.761L814.128 220.945L814.524 222.183C814.629 221.868 814.695 221.661 814.723 221.561C814.786 221.355 814.855 221.15 814.928 220.945L816.309 217.24H818.284L815.399 224.5H813.67ZM819.467 216.256V214.479H821.388V216.256H819.467ZM819.467 224.5V217.24H821.388V224.5H819.467ZM829.693 219.387L827.8 219.729C827.736 219.35 827.59 219.065 827.362 218.874C827.139 218.683 826.847 218.587 826.487 218.587C826.009 218.587 825.626 218.753 825.339 219.086C825.056 219.414 824.915 219.965 824.915 220.74C824.915 221.602 825.059 222.21 825.346 222.565C825.637 222.921 826.027 223.099 826.515 223.099C826.879 223.099 827.178 222.996 827.41 222.791C827.643 222.581 827.807 222.224 827.902 221.718L829.789 222.039C829.593 222.905 829.217 223.559 828.661 224.001C828.105 224.443 827.36 224.664 826.426 224.664C825.364 224.664 824.516 224.329 823.883 223.659C823.254 222.989 822.939 222.062 822.939 220.877C822.939 219.678 823.256 218.746 823.89 218.081C824.523 217.411 825.38 217.076 826.46 217.076C827.344 217.076 828.046 217.268 828.565 217.65C829.09 218.029 829.465 218.607 829.693 219.387ZM835.36 222.189L837.274 222.511C837.028 223.213 836.639 223.748 836.105 224.117C835.577 224.482 834.914 224.664 834.116 224.664C832.854 224.664 831.92 224.252 831.313 223.427C830.835 222.766 830.596 221.932 830.596 220.925C830.596 219.722 830.91 218.781 831.539 218.102C832.168 217.418 832.963 217.076 833.925 217.076C835.005 217.076 835.857 217.434 836.481 218.149C837.106 218.86 837.404 219.952 837.377 221.424H832.564C832.578 221.993 832.733 222.438 833.029 222.757C833.326 223.071 833.695 223.229 834.137 223.229C834.438 223.229 834.69 223.146 834.896 222.982C835.101 222.818 835.256 222.554 835.36 222.189ZM835.47 220.248C835.456 219.692 835.312 219.271 835.039 218.983C834.766 218.692 834.433 218.546 834.041 218.546C833.622 218.546 833.275 218.699 833.002 219.004C832.729 219.309 832.594 219.724 832.599 220.248H835.47ZM838.272 222.429L840.2 222.135C840.282 222.508 840.449 222.793 840.699 222.989C840.95 223.181 841.301 223.276 841.752 223.276C842.249 223.276 842.622 223.185 842.873 223.003C843.042 222.875 843.126 222.704 843.126 222.49C843.126 222.344 843.08 222.224 842.989 222.128C842.894 222.037 842.679 221.952 842.347 221.875C840.797 221.533 839.815 221.221 839.4 220.938C838.826 220.547 838.539 220.002 838.539 219.305C838.539 218.676 838.787 218.147 839.284 217.719C839.781 217.29 840.551 217.076 841.595 217.076C842.588 217.076 843.326 217.238 843.81 217.562C844.293 217.885 844.625 218.364 844.808 218.997L842.996 219.332C842.919 219.049 842.771 218.833 842.552 218.683C842.338 218.532 842.03 218.457 841.629 218.457C841.123 218.457 840.761 218.528 840.542 218.669C840.396 218.769 840.323 218.899 840.323 219.059C840.323 219.195 840.387 219.312 840.515 219.407C840.688 219.535 841.285 219.715 842.306 219.947C843.331 220.18 844.047 220.465 844.452 220.802C844.853 221.144 845.054 221.62 845.054 222.23C845.054 222.896 844.776 223.468 844.22 223.946C843.664 224.425 842.841 224.664 841.752 224.664C840.763 224.664 839.979 224.464 839.4 224.062C838.826 223.661 838.45 223.117 838.272 222.429Z" fill="#545351"/>
<rect x="0.5" y="195.5" width="205.673" height="48" fill="white"/>
<rect x="1" y="196" width="204.673" height="47" stroke="#2B2B2B" stroke-opacity="0.431"/>
<path d="M197.891 233.971V235.5H192.119C192.182 234.922 192.369 234.375 192.682 233.859C192.994 233.34 193.611 232.652 194.533 231.797C195.275 231.105 195.73 230.637 195.898 230.391C196.125 230.051 196.238 229.715 196.238 229.383C196.238 229.016 196.139 228.734 195.939 228.539C195.744 228.34 195.473 228.24 195.125 228.24C194.781 228.24 194.508 228.344 194.305 228.551C194.102 228.758 193.984 229.102 193.953 229.582L192.312 229.418C192.41 228.512 192.717 227.861 193.232 227.467C193.748 227.072 194.393 226.875 195.166 226.875C196.014 226.875 196.68 227.104 197.164 227.561C197.648 228.018 197.891 228.586 197.891 229.266C197.891 229.652 197.82 230.021 197.68 230.373C197.543 230.721 197.324 231.086 197.023 231.469C196.824 231.723 196.465 232.088 195.945 232.564C195.426 233.041 195.096 233.357 194.955 233.514C194.818 233.67 194.707 233.822 194.621 233.971H197.891Z" fill="#FE1616" fill-opacity="0.4"/>
<path d="M58.9629 224.5H56.7617L55.8867 222.224H51.8809L51.0537 224.5H48.9072L52.8105 214.479H54.9502L58.9629 224.5ZM55.2373 220.535L53.8564 216.816L52.5029 220.535H55.2373ZM59.9473 224.5V214.479H61.8682V218.088C62.4606 217.413 63.1624 217.076 63.9736 217.076C64.8577 217.076 65.5892 217.397 66.168 218.04C66.7467 218.678 67.0361 219.596 67.0361 220.795C67.0361 222.035 66.7399 222.989 66.1475 223.659C65.5596 224.329 64.8441 224.664 64.001 224.664C63.5863 224.664 63.1761 224.562 62.7705 224.356C62.3695 224.147 62.0231 223.839 61.7314 223.434V224.5H59.9473ZM61.8545 220.713C61.8545 221.465 61.973 222.021 62.21 222.381C62.5426 222.891 62.9847 223.146 63.5361 223.146C63.96 223.146 64.32 222.966 64.6162 222.606C64.917 222.242 65.0674 221.67 65.0674 220.891C65.0674 220.061 64.917 219.464 64.6162 219.1C64.3154 218.73 63.9303 218.546 63.4609 218.546C63.0007 218.546 62.6178 218.726 62.3125 219.086C62.0072 219.441 61.8545 219.984 61.8545 220.713ZM68.1436 220.768C68.1436 220.13 68.3008 219.512 68.6152 218.915C68.9297 218.318 69.374 217.862 69.9482 217.548C70.527 217.233 71.1719 217.076 71.8828 217.076C72.9811 217.076 73.8812 217.434 74.583 218.149C75.2848 218.86 75.6357 219.76 75.6357 220.85C75.6357 221.948 75.2803 222.859 74.5693 223.584C73.863 224.304 72.972 224.664 71.8965 224.664C71.2311 224.664 70.5954 224.514 69.9893 224.213C69.3877 223.912 68.9297 223.472 68.6152 222.894C68.3008 222.31 68.1436 221.602 68.1436 220.768ZM70.1123 220.87C70.1123 221.59 70.2832 222.142 70.625 222.524C70.9668 222.907 71.3883 223.099 71.8896 223.099C72.391 223.099 72.8102 222.907 73.1475 222.524C73.4893 222.142 73.6602 221.586 73.6602 220.856C73.6602 220.146 73.4893 219.599 73.1475 219.216C72.8102 218.833 72.391 218.642 71.8896 218.642C71.3883 218.642 70.9668 218.833 70.625 219.216C70.2832 219.599 70.1123 220.15 70.1123 220.87ZM81.9248 224.5V223.413C81.6605 223.8 81.3118 224.106 80.8789 224.329C80.4505 224.552 79.9971 224.664 79.5186 224.664C79.0309 224.664 78.5934 224.557 78.2061 224.343C77.8187 224.129 77.5384 223.828 77.3652 223.44C77.1921 223.053 77.1055 222.518 77.1055 221.834V217.24H79.0264V220.576C79.0264 221.597 79.0605 222.224 79.1289 222.456C79.2018 222.684 79.3317 222.866 79.5186 223.003C79.7054 223.135 79.9424 223.201 80.2295 223.201C80.5576 223.201 80.8516 223.112 81.1113 222.935C81.3711 222.752 81.5488 222.529 81.6445 222.265C81.7402 221.996 81.7881 221.342 81.7881 220.303V217.24H83.709V224.5H81.9248ZM89.0342 217.24V218.771H87.7217V221.697C87.7217 222.29 87.7331 222.636 87.7559 222.736C87.7832 222.832 87.8402 222.912 87.9268 222.976C88.0179 223.039 88.1273 223.071 88.2549 223.071C88.4326 223.071 88.6901 223.01 89.0273 222.887L89.1914 224.377C88.7448 224.568 88.2389 224.664 87.6738 224.664C87.3275 224.664 87.0153 224.607 86.7373 224.493C86.4593 224.375 86.2542 224.224 86.1221 224.042C85.9945 223.855 85.9056 223.604 85.8555 223.29C85.8145 223.067 85.7939 222.616 85.7939 221.937V218.771H84.9121V217.24H85.7939V215.798L87.7217 214.677V217.24H89.0342ZM100.689 220.815L102.651 221.438C102.351 222.531 101.849 223.345 101.147 223.878C100.45 224.407 99.5638 224.671 98.4883 224.671C97.1576 224.671 96.0638 224.217 95.207 223.311C94.3503 222.399 93.9219 221.155 93.9219 219.578C93.9219 217.91 94.3525 216.616 95.2139 215.695C96.0752 214.77 97.2077 214.308 98.6113 214.308C99.8372 214.308 100.833 214.67 101.599 215.395C102.054 215.823 102.396 216.438 102.624 217.24L100.621 217.719C100.503 217.199 100.254 216.789 99.876 216.488C99.5023 216.188 99.0465 216.037 98.5088 216.037C97.766 216.037 97.1621 216.304 96.6973 216.837C96.237 217.37 96.0068 218.234 96.0068 219.428C96.0068 220.695 96.2347 221.597 96.6904 222.135C97.1462 222.673 97.7386 222.941 98.4678 222.941C99.0055 222.941 99.4681 222.771 99.8555 222.429C100.243 222.087 100.521 221.549 100.689 220.815ZM103.937 220.768C103.937 220.13 104.094 219.512 104.408 218.915C104.723 218.318 105.167 217.862 105.741 217.548C106.32 217.233 106.965 217.076 107.676 217.076C108.774 217.076 109.674 217.434 110.376 218.149C111.078 218.86 111.429 219.76 111.429 220.85C111.429 221.948 111.073 222.859 110.362 223.584C109.656 224.304 108.765 224.664 107.689 224.664C107.024 224.664 106.388 224.514 105.782 224.213C105.181 223.912 104.723 223.472 104.408 222.894C104.094 222.31 103.937 221.602 103.937 220.768ZM105.905 220.87C105.905 221.59 106.076 222.142 106.418 222.524C106.76 222.907 107.181 223.099 107.683 223.099C108.184 223.099 108.603 222.907 108.94 222.524C109.282 222.142 109.453 221.586 109.453 220.856C109.453 220.146 109.282 219.599 108.94 219.216C108.603 218.833 108.184 218.642 107.683 218.642C107.181 218.642 106.76 218.833 106.418 219.216C106.076 219.599 105.905 220.15 105.905 220.87ZM112.796 217.24H114.566V218.231C115.2 217.461 115.954 217.076 116.829 217.076C117.294 217.076 117.697 217.172 118.039 217.363C118.381 217.555 118.661 217.844 118.88 218.231C119.199 217.844 119.543 217.555 119.912 217.363C120.281 217.172 120.675 217.076 121.095 217.076C121.628 217.076 122.079 217.186 122.448 217.404C122.817 217.618 123.093 217.935 123.275 218.354C123.408 218.664 123.474 219.166 123.474 219.858V224.5H121.553V220.351C121.553 219.631 121.487 219.166 121.354 218.956C121.177 218.683 120.903 218.546 120.534 218.546C120.265 218.546 120.012 218.628 119.775 218.792C119.538 218.956 119.368 219.198 119.263 219.517C119.158 219.831 119.105 220.33 119.105 221.014V224.5H117.185V220.521C117.185 219.815 117.15 219.359 117.082 219.154C117.014 218.949 116.907 218.797 116.761 218.696C116.619 218.596 116.426 218.546 116.18 218.546C115.883 218.546 115.617 218.626 115.38 218.785C115.143 218.945 114.972 219.175 114.867 219.476C114.767 219.776 114.717 220.275 114.717 220.973V224.5H112.796V217.24ZM125.34 217.24H127.131V218.307C127.363 217.942 127.678 217.646 128.074 217.418C128.471 217.19 128.91 217.076 129.394 217.076C130.237 217.076 130.952 217.407 131.54 218.067C132.128 218.728 132.422 219.649 132.422 220.829C132.422 222.041 132.126 222.985 131.533 223.659C130.941 224.329 130.223 224.664 129.38 224.664C128.979 224.664 128.614 224.584 128.286 224.425C127.963 224.265 127.621 223.992 127.261 223.604V227.262H125.34V217.24ZM127.24 220.747C127.24 221.563 127.402 222.167 127.726 222.559C128.049 222.946 128.443 223.14 128.908 223.14C129.355 223.14 129.726 222.962 130.022 222.606C130.319 222.246 130.467 221.659 130.467 220.843C130.467 220.082 130.314 219.517 130.009 219.147C129.703 218.778 129.325 218.594 128.874 218.594C128.405 218.594 128.015 218.776 127.705 219.141C127.395 219.501 127.24 220.036 127.24 220.747ZM135.389 219.455L133.646 219.141C133.841 218.439 134.179 217.919 134.657 217.582C135.136 217.245 135.847 217.076 136.79 217.076C137.647 217.076 138.285 217.179 138.704 217.384C139.123 217.584 139.417 217.842 139.586 218.156C139.759 218.466 139.846 219.038 139.846 219.872L139.825 222.114C139.825 222.752 139.855 223.224 139.914 223.529C139.978 223.83 140.094 224.154 140.263 224.5H138.362C138.312 224.372 138.251 224.183 138.178 223.933C138.146 223.819 138.123 223.743 138.109 223.707C137.781 224.026 137.43 224.265 137.057 224.425C136.683 224.584 136.284 224.664 135.86 224.664C135.113 224.664 134.523 224.461 134.09 224.056C133.661 223.65 133.447 223.137 133.447 222.518C133.447 222.107 133.545 221.743 133.741 221.424C133.937 221.1 134.211 220.854 134.562 220.686C134.917 220.512 135.427 220.362 136.093 220.234C136.991 220.066 137.613 219.909 137.959 219.763V219.571C137.959 219.202 137.868 218.94 137.686 218.785C137.503 218.626 137.159 218.546 136.653 218.546C136.312 218.546 136.045 218.614 135.854 218.751C135.662 218.883 135.507 219.118 135.389 219.455ZM137.959 221.014C137.713 221.096 137.323 221.194 136.79 221.308C136.257 221.422 135.908 221.533 135.744 221.643C135.493 221.82 135.368 222.046 135.368 222.319C135.368 222.588 135.468 222.821 135.669 223.017C135.869 223.213 136.125 223.311 136.435 223.311C136.781 223.311 137.111 223.197 137.426 222.969C137.658 222.796 137.811 222.584 137.884 222.333C137.934 222.169 137.959 221.857 137.959 221.396V221.014ZM148.35 224.5H146.429V220.795C146.429 220.011 146.388 219.505 146.306 219.277C146.224 219.045 146.089 218.865 145.902 218.737C145.72 218.61 145.499 218.546 145.239 218.546C144.907 218.546 144.608 218.637 144.344 218.819C144.079 219.002 143.897 219.243 143.797 219.544C143.701 219.845 143.653 220.401 143.653 221.212V224.5H141.732V217.24H143.517V218.307C144.15 217.486 144.948 217.076 145.909 217.076C146.333 217.076 146.72 217.154 147.071 217.309C147.422 217.459 147.687 217.653 147.864 217.89C148.047 218.127 148.172 218.396 148.24 218.696C148.313 218.997 148.35 219.428 148.35 219.988V224.5ZM149.396 217.24H151.439L153.176 222.395L154.871 217.24H156.86L154.297 224.227L153.839 225.491C153.67 225.915 153.508 226.239 153.354 226.462C153.203 226.685 153.028 226.865 152.827 227.002C152.631 227.143 152.387 227.253 152.096 227.33C151.809 227.408 151.483 227.446 151.118 227.446C150.749 227.446 150.387 227.408 150.031 227.33L149.86 225.826C150.161 225.885 150.432 225.915 150.674 225.915C151.12 225.915 151.451 225.783 151.665 225.519C151.879 225.259 152.043 224.926 152.157 224.521L149.396 217.24Z" fill="#545351"/>
<rect x="1039.76" y="195.5" width="202.776" height="48" fill="white"/>
<rect x="1040.26" y="196" width="201.776" height="47" stroke="#2B2B2B" stroke-opacity="0.431"/>
<path d="M1228.59 228.557V227.027H1234.22V228.223C1233.75 228.68 1233.28 229.336 1232.8 230.191C1232.32 231.047 1231.95 231.957 1231.7 232.922C1231.45 233.883 1231.33 234.742 1231.33 235.5H1229.74C1229.77 234.312 1230.01 233.102 1230.47 231.867C1230.94 230.633 1231.56 229.529 1232.33 228.557H1228.59Z" fill="#FE1616" fill-opacity="0.4"/>
<path d="M1084.22 220.815L1086.18 221.438C1085.88 222.531 1085.38 223.345 1084.67 223.878C1083.98 224.407 1083.09 224.671 1082.02 224.671C1080.68 224.671 1079.59 224.217 1078.73 223.311C1077.88 222.399 1077.45 221.155 1077.45 219.578C1077.45 217.91 1077.88 216.616 1078.74 215.695C1079.6 214.77 1080.74 214.308 1082.14 214.308C1083.36 214.308 1084.36 214.67 1085.13 215.395C1085.58 215.823 1085.92 216.438 1086.15 217.24L1084.15 217.719C1084.03 217.199 1083.78 216.789 1083.4 216.488C1083.03 216.188 1082.57 216.037 1082.04 216.037C1081.29 216.037 1080.69 216.304 1080.22 216.837C1079.76 217.37 1079.53 218.234 1079.53 219.428C1079.53 220.695 1079.76 221.597 1080.22 222.135C1080.67 222.673 1081.27 222.941 1082 222.941C1082.53 222.941 1083 222.771 1083.38 222.429C1083.77 222.087 1084.05 221.549 1084.22 220.815ZM1092.69 224.5V223.413C1092.42 223.8 1092.07 224.106 1091.64 224.329C1091.21 224.552 1090.76 224.664 1090.28 224.664C1089.79 224.664 1089.36 224.557 1088.97 224.343C1088.58 224.129 1088.3 223.828 1088.13 223.44C1087.95 223.053 1087.87 222.518 1087.87 221.834V217.24H1089.79V220.576C1089.79 221.597 1089.82 222.224 1089.89 222.456C1089.96 222.684 1090.09 222.866 1090.28 223.003C1090.47 223.135 1090.7 223.201 1090.99 223.201C1091.32 223.201 1091.61 223.112 1091.87 222.935C1092.13 222.752 1092.31 222.529 1092.41 222.265C1092.5 221.996 1092.55 221.342 1092.55 220.303V217.24H1094.47V224.5H1092.69ZM1095.79 222.429L1097.72 222.135C1097.8 222.508 1097.97 222.793 1098.22 222.989C1098.47 223.181 1098.82 223.276 1099.27 223.276C1099.77 223.276 1100.14 223.185 1100.39 223.003C1100.56 222.875 1100.64 222.704 1100.64 222.49C1100.64 222.344 1100.6 222.224 1100.51 222.128C1100.41 222.037 1100.2 221.952 1099.86 221.875C1098.31 221.533 1097.33 221.221 1096.92 220.938C1096.34 220.547 1096.06 220.002 1096.06 219.305C1096.06 218.676 1096.31 218.147 1096.8 217.719C1097.3 217.29 1098.07 217.076 1099.11 217.076C1100.11 217.076 1100.84 217.238 1101.33 217.562C1101.81 217.885 1102.14 218.364 1102.33 218.997L1100.51 219.332C1100.44 219.049 1100.29 218.833 1100.07 218.683C1099.86 218.532 1099.55 218.457 1099.15 218.457C1098.64 218.457 1098.28 218.528 1098.06 218.669C1097.91 218.769 1097.84 218.899 1097.84 219.059C1097.84 219.195 1097.9 219.312 1098.03 219.407C1098.21 219.535 1098.8 219.715 1099.82 219.947C1100.85 220.18 1101.56 220.465 1101.97 220.802C1102.37 221.144 1102.57 221.62 1102.57 222.23C1102.57 222.896 1102.29 223.468 1101.74 223.946C1101.18 224.425 1100.36 224.664 1099.27 224.664C1098.28 224.664 1097.5 224.464 1096.92 224.062C1096.34 223.661 1095.97 223.117 1095.79 222.429ZM1107.59 217.24V218.771H1106.28V221.697C1106.28 222.29 1106.29 222.636 1106.31 222.736C1106.34 222.832 1106.39 222.912 1106.48 222.976C1106.57 223.039 1106.68 223.071 1106.81 223.071C1106.99 223.071 1107.24 223.01 1107.58 222.887L1107.75 224.377C1107.3 224.568 1106.79 224.664 1106.23 224.664C1105.88 224.664 1105.57 224.607 1105.29 224.493C1105.01 224.375 1104.81 224.224 1104.68 224.042C1104.55 223.855 1104.46 223.604 1104.41 223.29C1104.37 223.067 1104.35 222.616 1104.35 221.937V218.771H1103.47V217.24H1104.35V215.798L1106.28 214.677V217.24H1107.59ZM1108.48 220.768C1108.48 220.13 1108.63 219.512 1108.95 218.915C1109.26 218.318 1109.71 217.862 1110.28 217.548C1110.86 217.233 1111.51 217.076 1112.22 217.076C1113.32 217.076 1114.22 217.434 1114.92 218.149C1115.62 218.86 1115.97 219.76 1115.97 220.85C1115.97 221.948 1115.61 222.859 1114.9 223.584C1114.2 224.304 1113.31 224.664 1112.23 224.664C1111.57 224.664 1110.93 224.514 1110.32 224.213C1109.72 223.912 1109.26 223.472 1108.95 222.894C1108.63 222.31 1108.48 221.602 1108.48 220.768ZM1110.45 220.87C1110.45 221.59 1110.62 222.142 1110.96 222.524C1111.3 222.907 1111.72 223.099 1112.22 223.099C1112.72 223.099 1113.14 222.907 1113.48 222.524C1113.82 222.142 1113.99 221.586 1113.99 220.856C1113.99 220.146 1113.82 219.599 1113.48 219.216C1113.14 218.833 1112.72 218.642 1112.22 218.642C1111.72 218.642 1111.3 218.833 1110.96 219.216C1110.62 219.599 1110.45 220.15 1110.45 220.87ZM1117.34 217.24H1119.11V218.231C1119.74 217.461 1120.5 217.076 1121.37 217.076C1121.83 217.076 1122.24 217.172 1122.58 217.363C1122.92 217.555 1123.2 217.844 1123.42 218.231C1123.74 217.844 1124.08 217.555 1124.45 217.363C1124.82 217.172 1125.22 217.076 1125.64 217.076C1126.17 217.076 1126.62 217.186 1126.99 217.404C1127.36 217.618 1127.63 217.935 1127.82 218.354C1127.95 218.664 1128.01 219.166 1128.01 219.858V224.5H1126.09V220.351C1126.09 219.631 1126.03 219.166 1125.9 218.956C1125.72 218.683 1125.44 218.546 1125.08 218.546C1124.81 218.546 1124.55 218.628 1124.32 218.792C1124.08 218.956 1123.91 219.198 1123.8 219.517C1123.7 219.831 1123.65 220.33 1123.65 221.014V224.5H1121.73V220.521C1121.73 219.815 1121.69 219.359 1121.62 219.154C1121.55 218.949 1121.45 218.797 1121.3 218.696C1121.16 218.596 1120.97 218.546 1120.72 218.546C1120.42 218.546 1120.16 218.626 1119.92 218.785C1119.68 218.945 1119.51 219.175 1119.41 219.476C1119.31 219.776 1119.26 220.275 1119.26 220.973V224.5H1117.34V217.24ZM1134.14 222.189L1136.05 222.511C1135.81 223.213 1135.42 223.748 1134.88 224.117C1134.36 224.482 1133.69 224.664 1132.9 224.664C1131.63 224.664 1130.7 224.252 1130.09 223.427C1129.61 222.766 1129.38 221.932 1129.38 220.925C1129.38 219.722 1129.69 218.781 1130.32 218.102C1130.95 217.418 1131.74 217.076 1132.7 217.076C1133.78 217.076 1134.64 217.434 1135.26 218.149C1135.89 218.86 1136.18 219.952 1136.16 221.424H1131.34C1131.36 221.993 1131.51 222.438 1131.81 222.757C1132.1 223.071 1132.47 223.229 1132.92 223.229C1133.22 223.229 1133.47 223.146 1133.67 222.982C1133.88 222.818 1134.03 222.554 1134.14 222.189ZM1134.25 220.248C1134.24 219.692 1134.09 219.271 1133.82 218.983C1133.54 218.692 1133.21 218.546 1132.82 218.546C1132.4 218.546 1132.05 218.699 1131.78 219.004C1131.51 219.309 1131.37 219.724 1131.38 220.248H1134.25ZM1139.57 224.5H1137.65V217.24H1139.43V218.272C1139.74 217.785 1140.01 217.464 1140.25 217.309C1140.5 217.154 1140.78 217.076 1141.08 217.076C1141.52 217.076 1141.94 217.197 1142.35 217.438L1141.75 219.113C1141.43 218.904 1141.13 218.799 1140.85 218.799C1140.58 218.799 1140.36 218.874 1140.17 219.024C1139.98 219.17 1139.83 219.437 1139.72 219.824C1139.62 220.212 1139.57 221.023 1139.57 222.258V224.5ZM1146.58 221.239L1148.55 221.048C1148.67 221.709 1148.91 222.194 1149.27 222.504C1149.63 222.814 1150.12 222.969 1150.74 222.969C1151.39 222.969 1151.88 222.832 1152.21 222.559C1152.54 222.281 1152.71 221.957 1152.71 221.588C1152.71 221.351 1152.64 221.15 1152.49 220.986C1152.36 220.818 1152.12 220.672 1151.77 220.549C1151.53 220.467 1150.99 220.321 1150.15 220.111C1149.06 219.842 1148.3 219.512 1147.87 219.12C1147.25 218.569 1146.94 217.896 1146.94 217.104C1146.94 216.593 1147.09 216.117 1147.37 215.675C1147.67 215.228 1148.08 214.889 1148.62 214.656C1149.17 214.424 1149.83 214.308 1150.6 214.308C1151.86 214.308 1152.8 214.583 1153.44 215.135C1154.08 215.686 1154.41 216.422 1154.44 217.343L1152.42 217.432C1152.33 216.917 1152.15 216.548 1151.86 216.324C1151.58 216.096 1151.15 215.982 1150.58 215.982C1149.99 215.982 1149.53 216.103 1149.2 216.345C1148.99 216.5 1148.88 216.707 1148.88 216.967C1148.88 217.204 1148.98 217.407 1149.18 217.575C1149.43 217.789 1150.05 218.013 1151.04 218.245C1152.02 218.478 1152.75 218.719 1153.22 218.97C1153.69 219.216 1154.06 219.555 1154.33 219.988C1154.6 220.417 1154.73 220.948 1154.73 221.581C1154.73 222.155 1154.57 222.693 1154.25 223.194C1153.93 223.696 1153.48 224.069 1152.9 224.315C1152.31 224.557 1151.59 224.678 1150.72 224.678C1149.45 224.678 1148.48 224.386 1147.8 223.803C1147.12 223.215 1146.71 222.36 1146.58 221.239ZM1160.62 222.189L1162.54 222.511C1162.29 223.213 1161.9 223.748 1161.37 224.117C1160.84 224.482 1160.18 224.664 1159.38 224.664C1158.12 224.664 1157.18 224.252 1156.58 223.427C1156.1 222.766 1155.86 221.932 1155.86 220.925C1155.86 219.722 1156.17 218.781 1156.8 218.102C1157.43 217.418 1158.22 217.076 1159.19 217.076C1160.27 217.076 1161.12 217.434 1161.74 218.149C1162.37 218.86 1162.67 219.952 1162.64 221.424H1157.83C1157.84 221.993 1157.99 222.438 1158.29 222.757C1158.59 223.071 1158.96 223.229 1159.4 223.229C1159.7 223.229 1159.95 223.146 1160.16 222.982C1160.36 222.818 1160.52 222.554 1160.62 222.189ZM1160.73 220.248C1160.72 219.692 1160.57 219.271 1160.3 218.983C1160.03 218.692 1159.69 218.546 1159.3 218.546C1158.88 218.546 1158.54 218.699 1158.26 219.004C1157.99 219.309 1157.86 219.724 1157.86 220.248H1160.73ZM1166.05 224.5H1164.13V217.24H1165.91V218.272C1166.22 217.785 1166.49 217.464 1166.73 217.309C1166.98 217.154 1167.26 217.076 1167.57 217.076C1168 217.076 1168.43 217.197 1168.83 217.438L1168.24 219.113C1167.91 218.904 1167.61 218.799 1167.33 218.799C1167.07 218.799 1166.84 218.874 1166.65 219.024C1166.46 219.17 1166.32 219.437 1166.21 219.824C1166.1 220.212 1166.05 221.023 1166.05 222.258V224.5ZM1171.66 224.5L1168.74 217.24H1170.75L1172.12 220.945L1172.52 222.183C1172.62 221.868 1172.69 221.661 1172.71 221.561C1172.78 221.355 1172.85 221.15 1172.92 220.945L1174.3 217.24H1176.28L1173.39 224.5H1171.66ZM1177.46 216.256V214.479H1179.38V216.256H1177.46ZM1177.46 224.5V217.24H1179.38V224.5H1177.46ZM1187.69 219.387L1185.79 219.729C1185.73 219.35 1185.58 219.065 1185.35 218.874C1185.13 218.683 1184.84 218.587 1184.48 218.587C1184 218.587 1183.62 218.753 1183.33 219.086C1183.05 219.414 1182.91 219.965 1182.91 220.74C1182.91 221.602 1183.05 222.21 1183.34 222.565C1183.63 222.921 1184.02 223.099 1184.51 223.099C1184.87 223.099 1185.17 222.996 1185.4 222.791C1185.63 222.581 1185.8 222.224 1185.89 221.718L1187.78 222.039C1187.59 222.905 1187.21 223.559 1186.65 224.001C1186.1 224.443 1185.35 224.664 1184.42 224.664C1183.36 224.664 1182.51 224.329 1181.88 223.659C1181.25 222.989 1180.93 222.062 1180.93 220.877C1180.93 219.678 1181.25 218.746 1181.88 218.081C1182.52 217.411 1183.37 217.076 1184.45 217.076C1185.34 217.076 1186.04 217.268 1186.56 217.65C1187.08 218.029 1187.46 218.607 1187.69 219.387ZM1193.35 222.189L1195.27 222.511C1195.02 223.213 1194.63 223.748 1194.1 224.117C1193.57 224.482 1192.91 224.664 1192.11 224.664C1190.85 224.664 1189.91 224.252 1189.31 223.427C1188.83 222.766 1188.59 221.932 1188.59 220.925C1188.59 219.722 1188.9 218.781 1189.53 218.102C1190.16 217.418 1190.96 217.076 1191.92 217.076C1193 217.076 1193.85 217.434 1194.47 218.149C1195.1 218.86 1195.4 219.952 1195.37 221.424H1190.56C1190.57 221.993 1190.73 222.438 1191.02 222.757C1191.32 223.071 1191.69 223.229 1192.13 223.229C1192.43 223.229 1192.68 223.146 1192.89 222.982C1193.09 222.818 1193.25 222.554 1193.35 222.189ZM1193.46 220.248C1193.45 219.692 1193.3 219.271 1193.03 218.983C1192.76 218.692 1192.43 218.546 1192.03 218.546C1191.61 218.546 1191.27 218.699 1190.99 219.004C1190.72 219.309 1190.59 219.724 1190.59 220.248H1193.46ZM1196.26 222.429L1198.19 222.135C1198.27 222.508 1198.44 222.793 1198.69 222.989C1198.94 223.181 1199.29 223.276 1199.74 223.276C1200.24 223.276 1200.61 223.185 1200.87 223.003C1201.03 222.875 1201.12 222.704 1201.12 222.49C1201.12 222.344 1201.07 222.224 1200.98 222.128C1200.89 222.037 1200.67 221.952 1200.34 221.875C1198.79 221.533 1197.81 221.221 1197.39 220.938C1196.82 220.547 1196.53 220.002 1196.53 219.305C1196.53 218.676 1196.78 218.147 1197.28 217.719C1197.77 217.29 1198.54 217.076 1199.59 217.076C1200.58 217.076 1201.32 217.238 1201.8 217.562C1202.28 217.885 1202.62 218.364 1202.8 218.997L1200.99 219.332C1200.91 219.049 1200.76 218.833 1200.54 218.683C1200.33 218.532 1200.02 218.457 1199.62 218.457C1199.12 218.457 1198.75 218.528 1198.53 218.669C1198.39 218.769 1198.32 218.899 1198.32 219.059C1198.32 219.195 1198.38 219.312 1198.51 219.407C1198.68 219.535 1199.28 219.715 1200.3 219.947C1201.32 220.18 1202.04 220.465 1202.44 220.802C1202.85 221.144 1203.05 221.62 1203.05 222.23C1203.05 222.896 1202.77 223.468 1202.21 223.946C1201.66 224.425 1200.83 224.664 1199.74 224.664C1198.76 224.664 1197.97 224.464 1197.39 224.062C1196.82 223.661 1196.44 223.117 1196.26 222.429Z" fill="#545351"/>
<path d="M1142.01 243.71L1142.01 277.71" stroke="#999999"/>
<rect x="1012.76" y="275.71" width="88" height="47.4498" fill="white"/>
<rect x="1013.26" y="276.21" width="87" height="46.4498" stroke="#2B2B2B" stroke-opacity="0.431"/>
<path d="M1088 310.075C1087.57 309.896 1087.26 309.649 1087.07 309.337C1086.88 309.021 1086.78 308.675 1086.78 308.3C1086.78 307.659 1087 307.13 1087.45 306.712C1087.9 306.294 1088.53 306.085 1089.36 306.085C1090.17 306.085 1090.81 306.294 1091.26 306.712C1091.71 307.13 1091.94 307.659 1091.94 308.3C1091.94 308.698 1091.83 309.054 1091.62 309.366C1091.42 309.675 1091.13 309.911 1090.75 310.075C1091.23 310.267 1091.59 310.546 1091.84 310.913C1092.09 311.28 1092.21 311.704 1092.21 312.185C1092.21 312.978 1091.96 313.622 1091.45 314.118C1090.95 314.614 1090.27 314.862 1089.43 314.862C1088.65 314.862 1088 314.657 1087.48 314.247C1086.87 313.763 1086.56 313.099 1086.56 312.255C1086.56 311.79 1086.68 311.364 1086.91 310.978C1087.14 310.587 1087.5 310.286 1088 310.075ZM1088.34 308.417C1088.34 308.745 1088.43 309.001 1088.61 309.185C1088.8 309.368 1089.05 309.46 1089.36 309.46C1089.67 309.46 1089.92 309.368 1090.11 309.185C1090.29 308.997 1090.39 308.739 1090.39 308.411C1090.39 308.103 1090.29 307.856 1090.11 307.673C1089.92 307.485 1089.68 307.392 1089.38 307.392C1089.06 307.392 1088.81 307.485 1088.62 307.673C1088.43 307.86 1088.34 308.108 1088.34 308.417ZM1088.19 312.097C1088.19 312.55 1088.3 312.903 1088.53 313.157C1088.77 313.411 1089.06 313.538 1089.4 313.538C1089.74 313.538 1090.03 313.417 1090.25 313.175C1090.47 312.929 1090.58 312.575 1090.58 312.114C1090.58 311.712 1090.47 311.39 1090.24 311.147C1090.02 310.901 1089.73 310.778 1089.38 310.778C1088.98 310.778 1088.68 310.917 1088.48 311.194C1088.28 311.472 1088.19 311.772 1088.19 312.097Z" fill="#FE1616" fill-opacity="0.4"/>
<path d="M1035.88 304.71V294.688H1037.85L1041.96 301.381V294.688H1043.83V304.71H1041.8L1037.76 298.175V304.71H1035.88ZM1045.52 300.978C1045.52 300.34 1045.68 299.722 1046 299.125C1046.31 298.528 1046.75 298.072 1047.33 297.758C1047.91 297.443 1048.55 297.286 1049.26 297.286C1050.36 297.286 1051.26 297.644 1051.96 298.359C1052.66 299.07 1053.02 299.97 1053.02 301.06C1053.02 302.158 1052.66 303.069 1051.95 303.794C1051.24 304.514 1050.35 304.874 1049.28 304.874C1048.61 304.874 1047.98 304.724 1047.37 304.423C1046.77 304.122 1046.31 303.682 1046 303.104C1045.68 302.52 1045.52 301.812 1045.52 300.978ZM1047.49 301.08C1047.49 301.8 1047.66 302.352 1048 302.734C1048.35 303.117 1048.77 303.309 1049.27 303.309C1049.77 303.309 1050.19 303.117 1050.53 302.734C1050.87 302.352 1051.04 301.796 1051.04 301.066C1051.04 300.355 1050.87 299.809 1050.53 299.426C1050.19 299.043 1049.77 298.852 1049.27 298.852C1048.77 298.852 1048.35 299.043 1048 299.426C1047.66 299.809 1047.49 300.36 1047.49 301.08ZM1057.86 297.45V298.981H1056.54V301.907C1056.54 302.5 1056.55 302.846 1056.58 302.946C1056.6 303.042 1056.66 303.122 1056.75 303.186C1056.84 303.249 1056.95 303.281 1057.08 303.281C1057.25 303.281 1057.51 303.22 1057.85 303.097L1058.01 304.587C1057.57 304.778 1057.06 304.874 1056.5 304.874C1056.15 304.874 1055.84 304.817 1055.56 304.703C1055.28 304.585 1055.08 304.434 1054.94 304.252C1054.82 304.065 1054.73 303.814 1054.68 303.5C1054.64 303.277 1054.62 302.826 1054.62 302.146V298.981H1053.73V297.45H1054.62V296.008L1056.54 294.887V297.45H1057.86ZM1059.19 296.466V294.688H1061.11V296.466H1059.19ZM1059.19 304.71V297.45H1061.11V304.71H1059.19ZM1069.42 299.597L1067.52 299.938C1067.46 299.56 1067.31 299.275 1067.08 299.084C1066.86 298.893 1066.57 298.797 1066.21 298.797C1065.73 298.797 1065.35 298.963 1065.06 299.296C1064.78 299.624 1064.64 300.175 1064.64 300.95C1064.64 301.812 1064.78 302.42 1065.07 302.775C1065.36 303.131 1065.75 303.309 1066.24 303.309C1066.6 303.309 1066.9 303.206 1067.13 303.001C1067.36 302.791 1067.53 302.434 1067.62 301.928L1069.51 302.249C1069.31 303.115 1068.94 303.769 1068.38 304.211C1067.83 304.653 1067.08 304.874 1066.15 304.874C1065.09 304.874 1064.24 304.539 1063.6 303.869C1062.98 303.199 1062.66 302.272 1062.66 301.087C1062.66 299.888 1062.98 298.956 1063.61 298.291C1064.24 297.621 1065.1 297.286 1066.18 297.286C1067.07 297.286 1067.77 297.478 1068.29 297.86C1068.81 298.239 1069.19 298.817 1069.42 299.597ZM1075.08 302.399L1077 302.721C1076.75 303.423 1076.36 303.958 1075.83 304.327C1075.3 304.692 1074.64 304.874 1073.84 304.874C1072.58 304.874 1071.64 304.462 1071.04 303.637C1070.56 302.976 1070.32 302.142 1070.32 301.135C1070.32 299.932 1070.63 298.991 1071.26 298.312C1071.89 297.628 1072.68 297.286 1073.65 297.286C1074.73 297.286 1075.58 297.644 1076.2 298.359C1076.83 299.07 1077.13 300.162 1077.1 301.634H1072.29C1072.3 302.203 1072.45 302.648 1072.75 302.967C1073.05 303.281 1073.42 303.438 1073.86 303.438C1074.16 303.438 1074.41 303.356 1074.62 303.192C1074.82 303.028 1074.98 302.764 1075.08 302.399ZM1075.19 300.458C1075.18 299.902 1075.03 299.48 1074.76 299.193C1074.49 298.902 1074.15 298.756 1073.76 298.756C1073.34 298.756 1073 298.909 1072.72 299.214C1072.45 299.519 1072.32 299.934 1072.32 300.458H1075.19Z" fill="#545351"/>
<rect x="1100.76" y="275.71" width="88" height="47.4498" fill="white"/>
<rect x="1101.26" y="276.21" width="87" height="46.4498" stroke="#2B2B2B" stroke-opacity="0.431"/>
<path d="M1174.62 312.724L1176.21 312.548C1176.25 312.872 1176.36 313.112 1176.52 313.269C1176.68 313.425 1176.9 313.503 1177.17 313.503C1177.51 313.503 1177.8 313.347 1178.04 313.034C1178.28 312.722 1178.43 312.073 1178.49 311.089C1178.08 311.569 1177.56 311.81 1176.94 311.81C1176.27 311.81 1175.68 311.55 1175.19 311.03C1174.7 310.507 1174.46 309.827 1174.46 308.991C1174.46 308.12 1174.71 307.419 1175.23 306.888C1175.75 306.353 1176.41 306.085 1177.21 306.085C1178.08 306.085 1178.8 306.423 1179.36 307.099C1179.91 307.771 1180.19 308.878 1180.19 310.421C1180.19 311.991 1179.9 313.124 1179.32 313.819C1178.74 314.515 1177.98 314.862 1177.05 314.862C1176.38 314.862 1175.83 314.685 1175.42 314.329C1175 313.97 1174.74 313.435 1174.62 312.724ZM1178.35 309.126C1178.35 308.595 1178.22 308.183 1177.98 307.89C1177.74 307.597 1177.46 307.45 1177.13 307.45C1176.83 307.45 1176.58 307.571 1176.37 307.813C1176.17 308.052 1176.07 308.444 1176.07 308.991C1176.07 309.546 1176.18 309.954 1176.4 310.216C1176.62 310.474 1176.89 310.603 1177.22 310.603C1177.54 310.603 1177.8 310.478 1178.02 310.228C1178.24 309.978 1178.35 309.61 1178.35 309.126Z" fill="#FE1616" fill-opacity="0.4"/>
<path d="M1112.17 304.71V294.688H1116.43C1117.5 294.688 1118.27 294.78 1118.76 294.962C1119.25 295.14 1119.64 295.459 1119.93 295.919C1120.22 296.379 1120.36 296.906 1120.36 297.498C1120.36 298.25 1120.14 298.872 1119.7 299.364C1119.26 299.852 1118.6 300.16 1117.72 300.287C1118.16 300.542 1118.52 300.823 1118.8 301.128C1119.09 301.433 1119.47 301.976 1119.95 302.755L1121.18 304.71H1118.76L1117.29 302.529C1116.78 301.75 1116.42 301.26 1116.23 301.06C1116.04 300.854 1115.83 300.715 1115.62 300.643C1115.41 300.565 1115.07 300.526 1114.6 300.526H1114.19V304.71H1112.17ZM1114.19 298.927H1115.69C1116.66 298.927 1117.27 298.886 1117.51 298.804C1117.75 298.722 1117.94 298.58 1118.07 298.38C1118.21 298.179 1118.28 297.929 1118.28 297.628C1118.28 297.291 1118.19 297.02 1118.01 296.814C1117.83 296.605 1117.58 296.473 1117.25 296.418C1117.08 296.395 1116.59 296.384 1115.77 296.384H1114.19V298.927ZM1126.47 302.399L1128.38 302.721C1128.14 303.423 1127.75 303.958 1127.21 304.327C1126.69 304.692 1126.02 304.874 1125.22 304.874C1123.96 304.874 1123.03 304.462 1122.42 303.637C1121.94 302.976 1121.7 302.142 1121.7 301.135C1121.7 299.932 1122.02 298.991 1122.65 298.312C1123.28 297.628 1124.07 297.286 1125.03 297.286C1126.11 297.286 1126.97 297.644 1127.59 298.359C1128.21 299.07 1128.51 300.162 1128.49 301.634H1123.67C1123.69 302.203 1123.84 302.648 1124.14 302.967C1124.43 303.281 1124.8 303.438 1125.25 303.438C1125.55 303.438 1125.8 303.356 1126 303.192C1126.21 303.028 1126.36 302.764 1126.47 302.399ZM1126.58 300.458C1126.56 299.902 1126.42 299.48 1126.15 299.193C1125.87 298.902 1125.54 298.756 1125.15 298.756C1124.73 298.756 1124.38 298.909 1124.11 299.214C1123.84 299.519 1123.7 299.934 1123.71 300.458H1126.58ZM1129.38 302.639L1131.31 302.345C1131.39 302.718 1131.56 303.003 1131.81 303.199C1132.06 303.391 1132.41 303.486 1132.86 303.486C1133.36 303.486 1133.73 303.395 1133.98 303.213C1134.15 303.085 1134.23 302.914 1134.23 302.7C1134.23 302.554 1134.19 302.434 1134.1 302.338C1134 302.247 1133.79 302.162 1133.46 302.085C1131.91 301.743 1130.92 301.431 1130.51 301.148C1129.93 300.757 1129.65 300.212 1129.65 299.515C1129.65 298.886 1129.9 298.357 1130.39 297.929C1130.89 297.5 1131.66 297.286 1132.7 297.286C1133.7 297.286 1134.43 297.448 1134.92 297.771C1135.4 298.095 1135.73 298.574 1135.92 299.207L1134.1 299.542C1134.03 299.259 1133.88 299.043 1133.66 298.893C1133.45 298.742 1133.14 298.667 1132.74 298.667C1132.23 298.667 1131.87 298.738 1131.65 298.879C1131.5 298.979 1131.43 299.109 1131.43 299.269C1131.43 299.405 1131.5 299.521 1131.62 299.617C1131.8 299.745 1132.39 299.925 1133.41 300.157C1134.44 300.39 1135.15 300.674 1135.56 301.012C1135.96 301.354 1136.16 301.83 1136.16 302.44C1136.16 303.106 1135.88 303.678 1135.33 304.156C1134.77 304.635 1133.95 304.874 1132.86 304.874C1131.87 304.874 1131.09 304.674 1130.51 304.272C1129.93 303.871 1129.56 303.327 1129.38 302.639ZM1142.05 302.399L1143.97 302.721C1143.72 303.423 1143.33 303.958 1142.8 304.327C1142.27 304.692 1141.61 304.874 1140.81 304.874C1139.55 304.874 1138.61 304.462 1138.01 303.637C1137.53 302.976 1137.29 302.142 1137.29 301.135C1137.29 299.932 1137.6 298.991 1138.23 298.312C1138.86 297.628 1139.66 297.286 1140.62 297.286C1141.7 297.286 1142.55 297.644 1143.18 298.359C1143.8 299.07 1144.1 300.162 1144.07 301.634H1139.26C1139.27 302.203 1139.43 302.648 1139.72 302.967C1140.02 303.281 1140.39 303.438 1140.83 303.438C1141.13 303.438 1141.38 303.356 1141.59 303.192C1141.79 303.028 1141.95 302.764 1142.05 302.399ZM1142.16 300.458C1142.15 299.902 1142.01 299.48 1141.73 299.193C1141.46 298.902 1141.13 298.756 1140.74 298.756C1140.32 298.756 1139.97 298.909 1139.7 299.214C1139.42 299.519 1139.29 299.934 1139.29 300.458H1142.16ZM1145.64 304.71V294.688H1147.56V304.71H1145.64ZM1149.54 304.71V294.688H1151.46V304.71H1149.54ZM1157.64 302.399L1159.55 302.721C1159.31 303.423 1158.92 303.958 1158.39 304.327C1157.86 304.692 1157.19 304.874 1156.4 304.874C1155.13 304.874 1154.2 304.462 1153.59 303.637C1153.12 302.976 1152.88 302.142 1152.88 301.135C1152.88 299.932 1153.19 298.991 1153.82 298.312C1154.45 297.628 1155.24 297.286 1156.21 297.286C1157.29 297.286 1158.14 297.644 1158.76 298.359C1159.39 299.07 1159.68 300.162 1159.66 301.634H1154.84C1154.86 302.203 1155.01 302.648 1155.31 302.967C1155.61 303.281 1155.97 303.438 1156.42 303.438C1156.72 303.438 1156.97 303.356 1157.18 303.192C1157.38 303.028 1157.54 302.764 1157.64 302.399ZM1157.75 300.458C1157.74 299.902 1157.59 299.48 1157.32 299.193C1157.05 298.902 1156.71 298.756 1156.32 298.756C1155.9 298.756 1155.56 298.909 1155.28 299.214C1155.01 299.519 1154.87 299.934 1154.88 300.458H1157.75ZM1163.07 304.71H1161.15V297.45H1162.93V298.482C1163.24 297.995 1163.51 297.674 1163.75 297.519C1164 297.364 1164.28 297.286 1164.59 297.286C1165.02 297.286 1165.44 297.407 1165.85 297.648L1165.26 299.323C1164.93 299.114 1164.63 299.009 1164.35 299.009C1164.08 299.009 1163.86 299.084 1163.67 299.234C1163.48 299.38 1163.33 299.647 1163.23 300.034C1163.12 300.422 1163.07 301.233 1163.07 302.468V304.71ZM1167.16 294.716H1169.08V296.09C1169.08 296.646 1169.03 297.086 1168.93 297.409C1168.84 297.728 1168.66 298.015 1168.39 298.271C1168.12 298.526 1167.79 298.726 1167.38 298.872L1167 298.079C1167.39 297.951 1167.66 297.776 1167.83 297.553C1167.99 297.329 1168.08 297.024 1168.09 296.637H1167.16V294.716ZM1169.9 302.639L1171.83 302.345C1171.91 302.718 1172.08 303.003 1172.33 303.199C1172.58 303.391 1172.93 303.486 1173.38 303.486C1173.88 303.486 1174.25 303.395 1174.5 303.213C1174.67 303.085 1174.76 302.914 1174.76 302.7C1174.76 302.554 1174.71 302.434 1174.62 302.338C1174.53 302.247 1174.31 302.162 1173.98 302.085C1172.43 301.743 1171.45 301.431 1171.03 301.148C1170.46 300.757 1170.17 300.212 1170.17 299.515C1170.17 298.886 1170.42 298.357 1170.92 297.929C1171.41 297.5 1172.18 297.286 1173.23 297.286C1174.22 297.286 1174.96 297.448 1175.44 297.771C1175.92 298.095 1176.26 298.574 1176.44 299.207L1174.63 299.542C1174.55 299.259 1174.4 299.043 1174.18 298.893C1173.97 298.742 1173.66 298.667 1173.26 298.667C1172.75 298.667 1172.39 298.738 1172.17 298.879C1172.03 298.979 1171.96 299.109 1171.96 299.269C1171.96 299.405 1172.02 299.521 1172.15 299.617C1172.32 299.745 1172.92 299.925 1173.94 300.157C1174.96 300.39 1175.68 300.674 1176.08 301.012C1176.49 301.354 1176.69 301.83 1176.69 302.44C1176.69 303.106 1176.41 303.678 1175.85 304.156C1175.3 304.635 1174.47 304.874 1173.38 304.874C1172.39 304.874 1171.61 304.674 1171.03 304.272C1170.46 303.871 1170.08 303.327 1169.9 302.639Z" fill="#545351"/>
<rect x="1188.76" y="275.71" width="88" height="47.4498" fill="white"/>
<rect x="1189.26" y="276.21" width="87" height="46.4498" stroke="#2B2B2B" stroke-opacity="0.431"/>
<path d="M1260.12 314.71H1258.47V308.505C1257.87 309.067 1257.16 309.483 1256.35 309.753V308.259C1256.78 308.118 1257.24 307.853 1257.75 307.462C1258.25 307.067 1258.6 306.608 1258.78 306.085H1260.12V314.71ZM1265.37 306.085C1266.2 306.085 1266.85 306.382 1267.32 306.976C1267.88 307.679 1268.16 308.845 1268.16 310.474C1268.16 312.099 1267.88 313.267 1267.31 313.978C1266.85 314.563 1266.2 314.856 1265.37 314.856C1264.53 314.856 1263.86 314.536 1263.35 313.896C1262.84 313.251 1262.58 312.104 1262.58 310.456C1262.58 308.839 1262.86 307.675 1263.42 306.964C1263.89 306.378 1264.54 306.085 1265.37 306.085ZM1265.37 307.45C1265.17 307.45 1264.99 307.515 1264.84 307.644C1264.68 307.769 1264.56 307.995 1264.47 308.323C1264.36 308.749 1264.3 309.466 1264.3 310.474C1264.3 311.481 1264.35 312.175 1264.46 312.554C1264.56 312.929 1264.68 313.179 1264.84 313.304C1264.99 313.429 1265.17 313.491 1265.37 313.491C1265.57 313.491 1265.75 313.429 1265.9 313.304C1266.06 313.175 1266.18 312.946 1266.27 312.618C1266.38 312.196 1266.44 311.481 1266.44 310.474C1266.44 309.466 1266.38 308.774 1266.28 308.399C1266.18 308.021 1266.05 307.769 1265.9 307.644C1265.74 307.515 1265.57 307.45 1265.37 307.45Z" fill="#FE1616" fill-opacity="0.4"/>
<path d="M1218.89 304.71V294.688H1225.76V296.384H1220.92V298.756H1225.1V300.451H1220.92V304.71H1218.89ZM1235.69 304.71H1233.49L1232.62 302.434H1228.61L1227.79 304.71H1225.64L1229.54 294.688H1231.68L1235.69 304.71ZM1231.97 300.745L1230.59 297.026L1229.23 300.745H1231.97ZM1244.84 303.438C1245.34 303.794 1245.88 304.076 1246.46 304.286L1245.72 305.715C1245.41 305.624 1245.11 305.498 1244.82 305.339C1244.76 305.307 1244.31 305.011 1243.47 304.45C1242.82 304.737 1242.09 304.881 1241.29 304.881C1239.75 304.881 1238.54 304.427 1237.67 303.521C1236.8 302.614 1236.36 301.34 1236.36 299.699C1236.36 298.063 1236.8 296.792 1237.68 295.885C1238.55 294.973 1239.74 294.518 1241.24 294.518C1242.72 294.518 1243.9 294.973 1244.77 295.885C1245.64 296.792 1246.08 298.063 1246.08 299.699C1246.08 300.565 1245.96 301.326 1245.72 301.982C1245.53 302.484 1245.24 302.969 1244.84 303.438ZM1243.21 302.297C1243.47 301.992 1243.67 301.622 1243.79 301.189C1243.93 300.757 1243.99 300.26 1243.99 299.699C1243.99 298.542 1243.74 297.678 1243.23 297.108C1242.72 296.534 1242.05 296.247 1241.22 296.247C1240.4 296.247 1239.73 296.534 1239.21 297.108C1238.7 297.683 1238.45 298.546 1238.45 299.699C1238.45 300.87 1238.7 301.748 1239.21 302.331C1239.73 302.91 1240.38 303.199 1241.16 303.199C1241.45 303.199 1241.73 303.151 1241.99 303.056C1241.58 302.787 1241.16 302.577 1240.74 302.427L1241.31 301.271C1241.97 301.499 1242.61 301.841 1243.21 302.297Z" fill="#545351"/>
<path d="M796 243.279L796 277.279" stroke="#999999"/>
<rect x="693" y="275.279" width="103" height="47.4498" fill="white"/>
<rect x="693.5" y="275.779" width="102" height="46.4498" stroke="#2B2B2B" stroke-opacity="0.431"/>
<path d="M781.854 312.07L783.494 311.9C783.541 312.271 783.68 312.566 783.91 312.785C784.141 313 784.406 313.107 784.707 313.107C785.051 313.107 785.342 312.968 785.58 312.691C785.818 312.41 785.938 311.988 785.938 311.425C785.938 310.898 785.818 310.503 785.58 310.242C785.346 309.976 785.039 309.843 784.66 309.843C784.188 309.843 783.764 310.052 783.389 310.47L782.053 310.277L782.896 305.806H787.25V307.347H784.145L783.887 308.806C784.254 308.623 784.629 308.531 785.012 308.531C785.742 308.531 786.361 308.796 786.869 309.328C787.377 309.859 787.631 310.548 787.631 311.396C787.631 312.103 787.426 312.734 787.016 313.289C786.457 314.046 785.682 314.425 784.689 314.425C783.896 314.425 783.25 314.212 782.75 313.787C782.25 313.361 781.951 312.789 781.854 312.07Z" fill="#FE1616" fill-opacity="0.4"/>
<path d="M729.829 300.594V298.906H734.19V302.898C733.767 303.308 733.151 303.67 732.345 303.985C731.543 304.295 730.729 304.45 729.904 304.45C728.856 304.45 727.942 304.231 727.163 303.793C726.384 303.351 725.798 302.722 725.406 301.907C725.014 301.086 724.818 300.195 724.818 299.234C724.818 298.19 725.037 297.263 725.475 296.452C725.912 295.64 726.552 295.018 727.396 294.585C728.038 294.253 728.838 294.086 729.795 294.086C731.039 294.086 732.01 294.348 732.707 294.873C733.409 295.392 733.86 296.112 734.061 297.033L732.051 297.409C731.91 296.917 731.643 296.529 731.251 296.247C730.864 295.959 730.378 295.816 729.795 295.816C728.911 295.816 728.207 296.096 727.683 296.657C727.163 297.217 726.903 298.049 726.903 299.152C726.903 300.341 727.168 301.235 727.696 301.832C728.225 302.424 728.918 302.72 729.774 302.72C730.198 302.72 730.622 302.638 731.046 302.474C731.474 302.306 731.841 302.103 732.146 301.866V300.594H729.829ZM740.828 304.279V303.192C740.564 303.579 740.215 303.885 739.782 304.108C739.354 304.331 738.9 304.443 738.422 304.443C737.934 304.443 737.497 304.336 737.109 304.122C736.722 303.907 736.442 303.607 736.269 303.219C736.095 302.832 736.009 302.296 736.009 301.613V297.019H737.93V300.355C737.93 301.376 737.964 302.002 738.032 302.235C738.105 302.463 738.235 302.645 738.422 302.782C738.609 302.914 738.846 302.98 739.133 302.98C739.461 302.98 739.755 302.891 740.015 302.713C740.274 302.531 740.452 302.308 740.548 302.043C740.644 301.775 740.691 301.121 740.691 300.082V297.019H742.612V304.279H740.828ZM744.608 296.035V294.257H746.529V296.035H744.608ZM744.608 304.279V297.019H746.529V304.279H744.608ZM755.163 304.279H753.379V303.212C753.083 303.627 752.732 303.937 752.326 304.142C751.925 304.343 751.52 304.443 751.109 304.443C750.275 304.443 749.56 304.108 748.963 303.438C748.37 302.764 748.074 301.825 748.074 300.622C748.074 299.391 748.364 298.457 748.942 297.819C749.521 297.176 750.253 296.855 751.137 296.855C751.948 296.855 752.65 297.192 753.242 297.867V294.257H755.163V304.279ZM750.036 300.492C750.036 301.266 750.143 301.827 750.357 302.173C750.667 302.675 751.1 302.925 751.656 302.925C752.098 302.925 752.474 302.738 752.784 302.365C753.094 301.986 753.249 301.424 753.249 300.676C753.249 299.842 753.099 299.243 752.798 298.878C752.497 298.509 752.112 298.325 751.643 298.325C751.187 298.325 750.804 298.507 750.494 298.872C750.189 299.232 750.036 299.772 750.036 300.492ZM761.268 301.968L763.182 302.29C762.936 302.991 762.546 303.527 762.013 303.896C761.484 304.261 760.821 304.443 760.023 304.443C758.761 304.443 757.827 304.03 757.221 303.206C756.742 302.545 756.503 301.711 756.503 300.704C756.503 299.5 756.817 298.559 757.446 297.88C758.075 297.197 758.87 296.855 759.832 296.855C760.912 296.855 761.764 297.213 762.389 297.928C763.013 298.639 763.312 299.731 763.284 301.203H758.472C758.485 301.772 758.64 302.217 758.937 302.536C759.233 302.85 759.602 303.007 760.044 303.007C760.345 303.007 760.598 302.925 760.803 302.761C761.008 302.597 761.163 302.333 761.268 301.968ZM761.377 300.027C761.363 299.471 761.22 299.049 760.946 298.762C760.673 298.471 760.34 298.325 759.948 298.325C759.529 298.325 759.183 298.477 758.909 298.783C758.636 299.088 758.501 299.503 758.506 300.027H761.377Z" fill="#545351"/>
<rect x="796" y="275.279" width="103" height="47.4498" fill="white"/>
<rect x="796.5" y="275.779" width="102" height="46.4498" stroke="#2B2B2B" stroke-opacity="0.431"/>
<path d="M890.408 307.792L888.814 307.968C888.775 307.64 888.674 307.398 888.51 307.242C888.346 307.085 888.133 307.007 887.871 307.007C887.523 307.007 887.229 307.164 886.986 307.476C886.748 307.789 886.598 308.439 886.535 309.427C886.945 308.943 887.455 308.701 888.064 308.701C888.752 308.701 889.34 308.962 889.828 309.486C890.32 310.009 890.566 310.685 890.566 311.513C890.566 312.392 890.309 313.097 889.793 313.628C889.277 314.16 888.615 314.425 887.807 314.425C886.939 314.425 886.227 314.089 885.668 313.417C885.109 312.742 884.83 311.636 884.83 310.101C884.83 308.527 885.121 307.392 885.703 306.697C886.285 306.001 887.041 305.654 887.971 305.654C888.623 305.654 889.162 305.837 889.588 306.205C890.018 306.568 890.291 307.097 890.408 307.792ZM886.676 311.384C886.676 311.919 886.799 312.333 887.045 312.626C887.291 312.916 887.572 313.06 887.889 313.06C888.193 313.06 888.447 312.941 888.65 312.703C888.854 312.464 888.955 312.074 888.955 311.531C888.955 310.972 888.846 310.564 888.627 310.306C888.408 310.044 888.135 309.914 887.807 309.914C887.49 309.914 887.223 310.039 887.004 310.289C886.785 310.535 886.676 310.9 886.676 311.384Z" fill="#FE1616" fill-opacity="0.4"/>
<path d="M838.094 304.279H835.893L835.018 302.002H831.012L830.185 304.279H828.038L831.941 294.257H834.081L838.094 304.279ZM834.368 300.314L832.987 296.595L831.634 300.314H834.368ZM839.105 297.019H840.896V298.085C841.129 297.721 841.443 297.425 841.84 297.197C842.236 296.969 842.676 296.855 843.159 296.855C844.002 296.855 844.718 297.185 845.306 297.846C845.894 298.507 846.188 299.428 846.188 300.608C846.188 301.82 845.891 302.764 845.299 303.438C844.706 304.108 843.989 304.443 843.146 304.443C842.744 304.443 842.38 304.363 842.052 304.204C841.728 304.044 841.386 303.771 841.026 303.383V307.041H839.105V297.019ZM841.006 300.526C841.006 301.342 841.168 301.945 841.491 302.337C841.815 302.725 842.209 302.918 842.674 302.918C843.12 302.918 843.492 302.741 843.788 302.385C844.084 302.025 844.232 301.437 844.232 300.622C844.232 299.861 844.08 299.295 843.774 298.926C843.469 298.557 843.091 298.373 842.64 298.373C842.17 298.373 841.781 298.555 841.471 298.919C841.161 299.279 841.006 299.815 841.006 300.526ZM847.664 297.019H849.455V298.085C849.688 297.721 850.002 297.425 850.398 297.197C850.795 296.969 851.235 296.855 851.718 296.855C852.561 296.855 853.276 297.185 853.864 297.846C854.452 298.507 854.746 299.428 854.746 300.608C854.746 301.82 854.45 302.764 853.857 303.438C853.265 304.108 852.547 304.443 851.704 304.443C851.303 304.443 850.938 304.363 850.61 304.204C850.287 304.044 849.945 303.771 849.585 303.383V307.041H847.664V297.019ZM849.564 300.526C849.564 301.342 849.726 301.945 850.05 302.337C850.373 302.725 850.768 302.918 851.232 302.918C851.679 302.918 852.05 302.741 852.347 302.385C852.643 302.025 852.791 301.437 852.791 300.622C852.791 299.861 852.638 299.295 852.333 298.926C852.028 298.557 851.649 298.373 851.198 298.373C850.729 298.373 850.339 298.555 850.029 298.919C849.719 299.279 849.564 299.815 849.564 300.526ZM856.277 304.279V294.257H858.198V304.279H856.277ZM859.265 297.019H861.309L863.045 302.173L864.74 297.019H866.729L864.166 304.005L863.708 305.27C863.539 305.694 863.378 306.017 863.223 306.241C863.072 306.464 862.897 306.644 862.696 306.781C862.5 306.922 862.257 307.031 861.965 307.109C861.678 307.186 861.352 307.225 860.987 307.225C860.618 307.225 860.256 307.186 859.9 307.109L859.729 305.605C860.03 305.664 860.301 305.694 860.543 305.694C860.99 305.694 861.32 305.562 861.534 305.297C861.748 305.038 861.912 304.705 862.026 304.299L859.265 297.019Z" fill="#545351"/>
<rect x="346.639" y="195.5" width="205.673" height="48" fill="white"/>
<rect x="347.139" y="196" width="204.673" height="47" stroke="#2B2B2B" stroke-opacity="0.431"/>
<path d="M538.411 233.221L540.004 233.027C540.055 233.434 540.192 233.744 540.415 233.959C540.637 234.174 540.907 234.281 541.223 234.281C541.563 234.281 541.848 234.152 542.079 233.895C542.313 233.637 542.43 233.289 542.43 232.852C542.43 232.438 542.319 232.109 542.096 231.867C541.874 231.625 541.602 231.504 541.282 231.504C541.071 231.504 540.819 231.545 540.526 231.627L540.708 230.285C541.153 230.297 541.493 230.201 541.727 229.998C541.961 229.791 542.079 229.518 542.079 229.178C542.079 228.889 541.993 228.658 541.821 228.486C541.649 228.314 541.42 228.229 541.135 228.229C540.854 228.229 540.614 228.326 540.415 228.521C540.215 228.717 540.094 229.002 540.051 229.377L538.534 229.119C538.639 228.6 538.797 228.186 539.008 227.877C539.223 227.564 539.52 227.32 539.899 227.145C540.282 226.965 540.709 226.875 541.182 226.875C541.991 226.875 542.639 227.133 543.127 227.648C543.53 228.07 543.731 228.547 543.731 229.078C543.731 229.832 543.319 230.434 542.495 230.883C542.987 230.988 543.379 231.225 543.672 231.592C543.969 231.959 544.118 232.402 544.118 232.922C544.118 233.676 543.842 234.318 543.292 234.85C542.741 235.381 542.055 235.646 541.235 235.646C540.458 235.646 539.813 235.424 539.301 234.979C538.79 234.529 538.493 233.943 538.411 233.221Z" fill="#FE1616" fill-opacity="0.4"/>
<path d="M389.686 224.5V214.479H392.933C394.164 214.479 394.966 214.529 395.339 214.629C395.914 214.779 396.394 215.107 396.782 215.613C397.169 216.115 397.363 216.764 397.363 217.562C397.363 218.177 397.251 218.694 397.028 219.113C396.805 219.533 396.52 219.863 396.173 220.104C395.832 220.341 395.483 220.499 395.127 220.576C394.644 220.672 393.945 220.72 393.029 220.72H391.709V224.5H389.686ZM391.709 216.174V219.018H392.817C393.614 219.018 394.148 218.965 394.417 218.86C394.685 218.756 394.895 218.591 395.045 218.368C395.2 218.145 395.278 217.885 395.278 217.589C395.278 217.224 395.171 216.924 394.957 216.687C394.742 216.45 394.471 216.301 394.143 216.242C393.902 216.197 393.416 216.174 392.687 216.174H391.709ZM400.446 219.455L398.703 219.141C398.899 218.439 399.236 217.919 399.714 217.582C400.193 217.245 400.904 217.076 401.847 217.076C402.704 217.076 403.342 217.179 403.761 217.384C404.181 217.584 404.474 217.842 404.643 218.156C404.816 218.466 404.903 219.038 404.903 219.872L404.882 222.114C404.882 222.752 404.912 223.224 404.971 223.529C405.035 223.83 405.151 224.154 405.32 224.5H403.419C403.369 224.372 403.308 224.183 403.235 223.933C403.203 223.819 403.18 223.743 403.167 223.707C402.838 224.026 402.487 224.265 402.114 224.425C401.74 224.584 401.341 224.664 400.917 224.664C400.17 224.664 399.58 224.461 399.147 224.056C398.719 223.65 398.504 223.137 398.504 222.518C398.504 222.107 398.602 221.743 398.798 221.424C398.994 221.1 399.268 220.854 399.619 220.686C399.974 220.512 400.485 220.362 401.15 220.234C402.048 220.066 402.67 219.909 403.016 219.763V219.571C403.016 219.202 402.925 218.94 402.743 218.785C402.56 218.626 402.216 218.546 401.71 218.546C401.369 218.546 401.102 218.614 400.911 218.751C400.719 218.883 400.564 219.118 400.446 219.455ZM403.016 221.014C402.77 221.096 402.38 221.194 401.847 221.308C401.314 221.422 400.965 221.533 400.801 221.643C400.551 221.82 400.425 222.046 400.425 222.319C400.425 222.588 400.526 222.821 400.726 223.017C400.927 223.213 401.182 223.311 401.492 223.311C401.838 223.311 402.168 223.197 402.483 222.969C402.715 222.796 402.868 222.584 402.941 222.333C402.991 222.169 403.016 221.857 403.016 221.396V221.014ZM405.894 217.24H407.938L409.674 222.395L411.37 217.24H413.359L410.795 224.227L410.337 225.491C410.169 225.915 410.007 226.239 409.852 226.462C409.702 226.685 409.526 226.865 409.326 227.002C409.13 227.143 408.886 227.253 408.594 227.33C408.307 227.408 407.981 227.446 407.617 227.446C407.248 227.446 406.885 227.408 406.53 227.33L406.359 225.826C406.66 225.885 406.931 225.915 407.172 225.915C407.619 225.915 407.949 225.783 408.164 225.519C408.378 225.259 408.542 224.926 408.656 224.521L405.894 217.24ZM414.453 217.24H416.223V218.231C416.857 217.461 417.611 217.076 418.486 217.076C418.951 217.076 419.354 217.172 419.696 217.363C420.038 217.555 420.318 217.844 420.537 218.231C420.856 217.844 421.2 217.555 421.569 217.363C421.938 217.172 422.332 217.076 422.751 217.076C423.285 217.076 423.736 217.186 424.105 217.404C424.474 217.618 424.75 217.935 424.932 218.354C425.064 218.664 425.13 219.166 425.13 219.858V224.5H423.209V220.351C423.209 219.631 423.143 219.166 423.011 218.956C422.833 218.683 422.56 218.546 422.191 218.546C421.922 218.546 421.669 218.628 421.432 218.792C421.195 218.956 421.024 219.198 420.919 219.517C420.815 219.831 420.762 220.33 420.762 221.014V224.5H418.841V220.521C418.841 219.815 418.807 219.359 418.739 219.154C418.67 218.949 418.563 218.797 418.417 218.696C418.276 218.596 418.083 218.546 417.836 218.546C417.54 218.546 417.274 218.626 417.037 218.785C416.8 218.945 416.629 219.175 416.524 219.476C416.424 219.776 416.374 220.275 416.374 220.973V224.5H414.453V217.24ZM431.255 222.189L433.169 222.511C432.923 223.213 432.534 223.748 432 224.117C431.472 224.482 430.809 224.664 430.011 224.664C428.749 224.664 427.815 224.252 427.208 223.427C426.73 222.766 426.491 221.932 426.491 220.925C426.491 219.722 426.805 218.781 427.434 218.102C428.063 217.418 428.858 217.076 429.82 217.076C430.9 217.076 431.752 217.434 432.376 218.149C433.001 218.86 433.299 219.952 433.272 221.424H428.459C428.473 221.993 428.628 222.438 428.924 222.757C429.221 223.071 429.59 223.229 430.032 223.229C430.333 223.229 430.585 223.146 430.791 222.982C430.996 222.818 431.151 222.554 431.255 222.189ZM431.365 220.248C431.351 219.692 431.208 219.271 430.934 218.983C430.661 218.692 430.328 218.546 429.936 218.546C429.517 218.546 429.17 218.699 428.897 219.004C428.624 219.309 428.489 219.724 428.494 220.248H431.365ZM441.448 224.5H439.527V220.795C439.527 220.011 439.486 219.505 439.404 219.277C439.322 219.045 439.187 218.865 439 218.737C438.818 218.61 438.597 218.546 438.337 218.546C438.005 218.546 437.706 218.637 437.442 218.819C437.178 219.002 436.995 219.243 436.895 219.544C436.799 219.845 436.751 220.401 436.751 221.212V224.5H434.831V217.24H436.615V218.307C437.248 217.486 438.046 217.076 439.007 217.076C439.431 217.076 439.819 217.154 440.169 217.309C440.52 217.459 440.785 217.653 440.962 217.89C441.145 218.127 441.27 218.396 441.338 218.696C441.411 218.997 441.448 219.428 441.448 219.988V224.5ZM446.732 217.24V218.771H445.419V221.697C445.419 222.29 445.431 222.636 445.454 222.736C445.481 222.832 445.538 222.912 445.625 222.976C445.716 223.039 445.825 223.071 445.953 223.071C446.13 223.071 446.388 223.01 446.725 222.887L446.889 224.377C446.443 224.568 445.937 224.664 445.372 224.664C445.025 224.664 444.713 224.607 444.435 224.493C444.157 224.375 443.952 224.224 443.82 224.042C443.692 223.855 443.603 223.604 443.553 223.29C443.512 223.067 443.492 222.616 443.492 221.937V218.771H442.61V217.24H443.492V215.798L445.419 214.677V217.24H446.732ZM451.462 221.239L453.431 221.048C453.55 221.709 453.789 222.194 454.149 222.504C454.514 222.814 455.003 222.969 455.619 222.969C456.27 222.969 456.76 222.832 457.088 222.559C457.421 222.281 457.587 221.957 457.587 221.588C457.587 221.351 457.517 221.15 457.375 220.986C457.239 220.818 456.997 220.672 456.651 220.549C456.414 220.467 455.874 220.321 455.031 220.111C453.946 219.842 453.185 219.512 452.748 219.12C452.132 218.569 451.825 217.896 451.825 217.104C451.825 216.593 451.968 216.117 452.255 215.675C452.547 215.228 452.964 214.889 453.506 214.656C454.053 214.424 454.712 214.308 455.482 214.308C456.74 214.308 457.685 214.583 458.319 215.135C458.957 215.686 459.292 216.422 459.324 217.343L457.3 217.432C457.214 216.917 457.027 216.548 456.74 216.324C456.457 216.096 456.031 215.982 455.461 215.982C454.874 215.982 454.413 216.103 454.081 216.345C453.866 216.5 453.759 216.707 453.759 216.967C453.759 217.204 453.86 217.407 454.06 217.575C454.315 217.789 454.935 218.013 455.919 218.245C456.904 218.478 457.631 218.719 458.1 218.97C458.574 219.216 458.943 219.555 459.208 219.988C459.476 220.417 459.611 220.948 459.611 221.581C459.611 222.155 459.451 222.693 459.132 223.194C458.813 223.696 458.362 224.069 457.779 224.315C457.195 224.557 456.469 224.678 455.598 224.678C454.331 224.678 453.358 224.386 452.679 223.803C452 223.215 451.595 222.36 451.462 221.239ZM465.503 222.189L467.417 222.511C467.171 223.213 466.782 223.748 466.249 224.117C465.72 224.482 465.057 224.664 464.259 224.664C462.997 224.664 462.063 224.252 461.457 223.427C460.978 222.766 460.739 221.932 460.739 220.925C460.739 219.722 461.053 218.781 461.682 218.102C462.311 217.418 463.106 217.076 464.068 217.076C465.148 217.076 466 217.434 466.625 218.149C467.249 218.86 467.547 219.952 467.52 221.424H462.708C462.721 221.993 462.876 222.438 463.172 222.757C463.469 223.071 463.838 223.229 464.28 223.229C464.581 223.229 464.833 223.146 465.039 222.982C465.244 222.818 465.399 222.554 465.503 222.189ZM465.613 220.248C465.599 219.692 465.456 219.271 465.182 218.983C464.909 218.692 464.576 218.546 464.184 218.546C463.765 218.546 463.418 218.699 463.145 219.004C462.872 219.309 462.737 219.724 462.742 220.248H465.613ZM470.931 224.5H469.01V217.24H470.794V218.272C471.1 217.785 471.373 217.464 471.615 217.309C471.861 217.154 472.139 217.076 472.449 217.076C472.886 217.076 473.308 217.197 473.713 217.438L473.119 219.113C472.795 218.904 472.494 218.799 472.216 218.799C471.947 218.799 471.72 218.874 471.533 219.024C471.346 219.17 471.198 219.437 471.088 219.824C470.984 220.212 470.931 221.023 470.931 222.258V224.5ZM476.543 224.5L473.618 217.24H475.634L477.001 220.945L477.398 222.183C477.503 221.868 477.569 221.661 477.596 221.561C477.66 221.355 477.728 221.15 477.801 220.945L479.182 217.24H481.158L478.273 224.5H476.543ZM482.34 216.256V214.479H484.261V216.256H482.34ZM482.34 224.5V217.24H484.261V224.5H482.34ZM492.567 219.387L490.673 219.729C490.61 219.35 490.464 219.065 490.236 218.874C490.013 218.683 489.721 218.587 489.361 218.587C488.882 218.587 488.5 218.753 488.212 219.086C487.93 219.414 487.789 219.965 487.789 220.74C487.789 221.602 487.932 222.21 488.219 222.565C488.511 222.921 488.901 223.099 489.388 223.099C489.753 223.099 490.051 222.996 490.284 222.791C490.516 222.581 490.68 222.224 490.776 221.718L492.663 222.039C492.467 222.905 492.091 223.559 491.535 224.001C490.979 224.443 490.234 224.664 489.299 224.664C488.237 224.664 487.39 224.329 486.756 223.659C486.127 222.989 485.813 222.062 485.813 220.877C485.813 219.678 486.13 218.746 486.763 218.081C487.397 217.411 488.253 217.076 489.333 217.076C490.218 217.076 490.919 217.268 491.439 217.65C491.963 218.029 492.339 218.607 492.567 219.387ZM498.234 222.189L500.148 222.511C499.902 223.213 499.512 223.748 498.979 224.117C498.45 224.482 497.787 224.664 496.99 224.664C495.727 224.664 494.793 224.252 494.187 223.427C493.708 222.766 493.469 221.932 493.469 220.925C493.469 219.722 493.784 218.781 494.413 218.102C495.042 217.418 495.837 217.076 496.798 217.076C497.878 217.076 498.731 217.434 499.355 218.149C499.979 218.86 500.278 219.952 500.25 221.424H495.438C495.452 221.993 495.607 222.438 495.903 222.757C496.199 223.071 496.568 223.229 497.01 223.229C497.311 223.229 497.564 223.146 497.769 222.982C497.974 222.818 498.129 222.554 498.234 222.189ZM498.343 220.248C498.33 219.692 498.186 219.271 497.913 218.983C497.639 218.692 497.306 218.546 496.915 218.546C496.495 218.546 496.149 218.699 495.875 219.004C495.602 219.309 495.468 219.724 495.472 220.248H498.343ZM501.146 222.429L503.074 222.135C503.156 222.508 503.322 222.793 503.573 222.989C503.823 223.181 504.174 223.276 504.625 223.276C505.122 223.276 505.496 223.185 505.747 223.003C505.915 222.875 506 222.704 506 222.49C506 222.344 505.954 222.224 505.863 222.128C505.767 222.037 505.553 221.952 505.22 221.875C503.671 221.533 502.689 221.221 502.274 220.938C501.7 220.547 501.413 220.002 501.413 219.305C501.413 218.676 501.661 218.147 502.158 217.719C502.654 217.29 503.425 217.076 504.468 217.076C505.462 217.076 506.2 217.238 506.683 217.562C507.166 217.885 507.499 218.364 507.681 218.997L505.87 219.332C505.792 219.049 505.644 218.833 505.425 218.683C505.211 218.532 504.903 218.457 504.502 218.457C503.997 218.457 503.634 218.528 503.416 218.669C503.27 218.769 503.197 218.899 503.197 219.059C503.197 219.195 503.261 219.312 503.388 219.407C503.561 219.535 504.158 219.715 505.179 219.947C506.205 220.18 506.92 220.465 507.326 220.802C507.727 221.144 507.927 221.62 507.927 222.23C507.927 222.896 507.649 223.468 507.093 223.946C506.537 224.425 505.715 224.664 504.625 224.664C503.637 224.664 502.853 224.464 502.274 224.062C501.7 223.661 501.324 223.117 501.146 222.429Z" fill="#545351"/>
<path d="M106.422 194.5V173.5H1145.07V194.5" stroke="#999999"/>
</svg>
