<svg width="24" height="24" viewBox="0 0 24 24" fill="none" xmlns="http://www.w3.org/2000/svg">
<path d="M19.9388 10.0009C20.0074 10.5489 20.4479 10.999 21.0002 10.999C21.5525 10.999 22.0058 10.5498 21.9504 10.0003C21.5163 5.70151 18.2937 2.48268 13.989 2.0497C13.4395 1.99443 12.9902 2.44772 12.9902 3C12.9902 3.55228 13.4403 3.99284 13.9884 4.06111C17.2017 4.46142 19.5373 6.79267 19.9388 10.0009Z" fill="white"/>
<path d="M12.9998 6.99999C12.9998 7.55228 13.4531 7.98031 13.9955 8.08421C15.0935 8.29451 15.7053 8.9063 15.9156 10.0043C16.0195 10.5467 16.4475 11 16.9998 11C17.5521 11 18.0094 10.5493 17.9375 10.0017C17.6389 7.72606 16.2737 6.36094 13.9981 6.06229C13.4505 5.99043 12.9998 6.44771 12.9998 6.99999ZM16.4218 13.443C16.2296 13.2683 15.9771 13.1752 15.7176 13.1832C15.4581 13.1912 15.2118 13.2998 15.0308 13.486L13.3888 15.1747C12.92 15.6568 12.2289 15.8923 11.6143 15.6195C11.0587 15.3728 10.3907 14.9642 9.71179 14.287C9.03167 13.6063 8.62208 12.936 8.37585 12.3796C8.10497 11.7675 8.33997 11.0804 8.81958 10.6135L10.5108 8.96699C10.6972 8.78612 10.8059 8.53982 10.814 8.2802C10.822 8.02059 10.7287 7.76804 10.5538 7.57599L6.85879 3.51299C6.68384 3.32035 6.44067 3.2035 6.18095 3.18725C5.92122 3.17101 5.66539 3.25665 5.46779 3.42599L3.29779 5.28699C3.1249 5.46051 3.02171 5.69145 3.00779 5.93599C2.99279 6.18599 2.70679 12.108 7.29879 16.702C11.3048 20.707 16.3228 21 17.7048 21C17.9068 21 18.0308 20.994 18.0638 20.992C18.3083 20.9783 18.5391 20.8747 18.7118 20.701L20.5718 18.53C20.7413 18.3325 20.8271 18.0768 20.811 17.817C20.795 17.5573 20.6783 17.3141 20.4858 17.139L16.4218 13.443Z" fill="white"/>
</svg>
