<svg width="20" height="16" viewBox="0 0 20 16" fill="none" xmlns="http://www.w3.org/2000/svg">
<path d="M20 2C20 0.895431 19.1046 0 18 0H2C0.895431 0 0 0.895431 0 2V14C0 15.1046 0.895431 16 2 16H18C19.1046 16 20 15.1046 20 14V2ZM18 3.53C18 3.82238 17.8494 4.09414 17.6014 4.2491L11.06 8.3375C10.4115 8.74284 9.58854 8.74284 8.94 8.3375L2.39856 4.2491C2.15062 4.09414 2 3.82238 2 3.53C2 2.86395 2.73263 2.45789 3.29744 2.8109L8.94 6.3375C9.58854 6.74284 10.4115 6.74284 11.06 6.3375L16.7026 2.8109C17.2674 2.45789 18 2.86395 18 3.53Z" fill="white"/>
</svg>
