<svg width="47" height="27" viewBox="0 0 47 27" fill="none" xmlns="http://www.w3.org/2000/svg">
<path d="M8.57245 24.6254C9.14983 24.6254 9.72133 24.5441 10.2869 24.3817C10.8525 24.2067 11.3592 23.9568 11.807 23.6319C12.2548 23.2944 12.6142 22.8883 12.8852 22.4134C13.1562 21.926 13.2917 21.3637 13.2917 20.7263C13.2917 19.964 13.1032 19.2892 12.7261 18.7018C12.3608 18.1019 11.8777 17.5583 11.2767 17.0709C10.6758 16.5711 9.98646 16.1024 9.20875 15.665C8.44283 15.2276 7.65923 14.7902 6.85796 14.3528C6.05668 13.9154 5.26719 13.4593 4.48949 12.9844C3.72356 12.497 3.04012 11.9597 2.43917 11.3723C1.83822 10.7725 1.3492 10.1101 0.972133 9.38529C0.606847 8.64797 0.424204 7.80442 0.424204 6.85465C0.424204 5.90488 0.589172 5.02384 0.919108 4.21153C1.26083 3.39923 1.75573 2.6994 2.40382 2.11204C3.05191 1.51218 3.84729 1.04354 4.78996 0.706125C5.74442 0.368706 6.83439 0.199997 8.05987 0.199997C9.16751 0.199997 10.1573 0.324967 11.0293 0.574906C11.9013 0.824846 12.6672 1.19351 13.3271 1.68089C13.9869 2.16827 14.5466 2.76813 15.0062 3.48046C15.4658 4.19279 15.8369 5.01759 16.1197 5.95486L14.1048 6.92963C13.8691 6.16731 13.5686 5.47373 13.2033 4.84888C12.838 4.21153 12.4021 3.66791 11.8954 3.21802C11.3887 2.76813 10.7995 2.42446 10.1279 2.18702C9.46799 1.93708 8.71974 1.81211 7.88311 1.81211C7.14076 1.81211 6.49267 1.92458 5.93885 2.14953C5.38503 2.36198 4.91958 2.64941 4.54251 3.01182C4.17723 3.36174 3.90032 3.76164 3.71178 4.21153C3.53503 4.64893 3.44665 5.09882 3.44665 5.56121C3.44665 6.21105 3.63519 6.81091 4.01226 7.36078C4.38933 7.89815 4.89012 8.41052 5.51465 8.89791C6.13917 9.37279 6.84617 9.83518 7.63566 10.2851C8.43694 10.735 9.24999 11.1911 10.0748 11.6535C10.8997 12.1159 11.7068 12.597 12.4963 13.0969C13.2976 13.5968 14.0105 14.1466 14.635 14.7465C15.2595 15.3339 15.7603 15.9837 16.1374 16.696C16.5145 17.3959 16.703 18.1832 16.703 19.058C16.703 20.0452 16.5263 20.9763 16.1728 21.851C15.8193 22.7133 15.289 23.4694 14.582 24.1192C13.875 24.7566 12.9971 25.2627 11.9484 25.6376C10.8997 26.0125 9.68009 26.2 8.28964 26.2C7.15843 26.2 6.15095 26.0688 5.26719 25.8063C4.38344 25.5439 3.59984 25.1627 2.9164 24.6629C2.24474 24.163 1.66736 23.5569 1.18423 22.8446C0.701114 22.1197 0.306369 21.2949 0 20.3701L2.10334 19.4516C2.35079 20.2639 2.68073 20.9887 3.09315 21.6261C3.51735 22.2634 4.00637 22.8071 4.56019 23.257C5.11401 23.6944 5.72675 24.0318 6.3984 24.2692C7.08184 24.5067 7.80652 24.6254 8.57245 24.6254Z" fill="white"/>
<path d="M34.0618 26.2C32.2471 26.2 30.5503 25.8563 28.9714 25.169C27.4042 24.4817 26.0373 23.5444 24.8707 22.3572C23.7159 21.1575 22.8027 19.764 22.1311 18.1769C21.4712 16.5773 21.1413 14.8715 21.1413 13.0594C21.1413 11.8722 21.2886 10.7287 21.5831 9.62898C21.8895 8.52925 22.3196 7.50449 22.8734 6.55472C23.4273 5.60495 24.093 4.74265 24.8707 3.96784C25.6602 3.18053 26.5322 2.51194 27.4866 1.96207C28.4411 1.39971 29.4722 0.968562 30.5798 0.668635C31.6992 0.356209 32.8599 0.199997 34.0618 0.199997C35.2755 0.199997 36.4362 0.356209 37.5438 0.668635C38.6514 0.968562 39.6825 1.39971 40.637 1.96207C41.6032 2.51194 42.4752 3.18053 43.2529 3.96784C44.0306 4.74265 44.6963 5.60495 45.2502 6.55472C45.8158 7.50449 46.2459 8.52925 46.5404 9.62898C46.8468 10.7287 47 11.8722 47 13.0594C47 14.2716 46.8468 15.4338 46.5404 16.5461C46.2459 17.6583 45.8158 18.7018 45.2502 19.6766C44.6963 20.6513 44.0306 21.5386 43.2529 22.3384C42.4752 23.1382 41.6032 23.8256 40.637 24.4004C39.6825 24.9753 38.6514 25.4189 37.5438 25.7314C36.4362 26.0438 35.2755 26.2 34.0618 26.2ZM34.0618 24.9628C35.4051 24.9628 36.5893 24.6691 37.6145 24.0818C38.6514 23.4819 39.5234 22.6509 40.2304 21.5886C40.9374 20.5264 41.4677 19.2704 41.8212 17.8208C42.1865 16.3711 42.3691 14.784 42.3691 13.0594C42.3691 11.3473 42.1865 9.77894 41.8212 8.35429C41.4677 6.92963 40.9374 5.70492 40.2304 4.68017C39.5234 3.64292 38.6514 2.84311 37.6145 2.28075C36.5893 1.70589 35.4051 1.41845 34.0618 1.41845C32.6949 1.41845 31.493 1.70589 30.4561 2.28075C29.4309 2.84311 28.5648 3.64292 27.8578 4.68017C27.1626 5.70492 26.6382 6.92963 26.2847 8.35429C25.9312 9.77894 25.7545 11.3473 25.7545 13.0594C25.7545 14.784 25.9312 16.3711 26.2847 17.8208C26.6382 19.2704 27.1626 20.5264 27.8578 21.5886C28.5648 22.6509 29.4309 23.4819 30.4561 24.0818C31.493 24.6691 32.6949 24.9628 34.0618 24.9628Z" fill="white"/>
</svg>
