<?xml version="1.0" encoding="utf-8"?>
<!-- Generator: Adobe Illustrator 27.1.1, SVG Export Plug-In . SVG Version: 6.00 Build 0)  -->
<svg version="1.1" id="Layer_1" xmlns="http://www.w3.org/2000/svg" xmlns:xlink="http://www.w3.org/1999/xlink" x="0px" y="0px"
	 viewBox="0 0 18 8" style="enable-background:new 0 0 18 8;" xml:space="preserve">
<style type="text/css">
	.st0{fill:#EC7DC9;}
</style>
<path class="st0" d="M1,3.5C0.7,3.5,0.5,3.7,0.5,4S0.7,4.5,1,4.5V3.5z M17.4,4.4c0.2-0.2,0.2-0.5,0-0.7l-3.2-3.2
	c-0.2-0.2-0.5-0.2-0.7,0c-0.2,0.2-0.2,0.5,0,0.7L16.3,4l-2.8,2.8c-0.2,0.2-0.2,0.5,0,0.7c0.2,0.2,0.5,0.2,0.7,0L17.4,4.4z M1,4.5h16
	v-1H1V4.5z"/>
</svg>
