<svg width="21" height="20" viewBox="0 0 21 20" fill="none" xmlns="http://www.w3.org/2000/svg">
<path d="M16.6502 20H20.9982L21 12.6715C21 9.07378 20.1875 6.30831 15.7806 6.30831C14.0959 6.24865 12.5133 7.07787 11.6622 8.46624H11.6038V6.6406H7.42967V19.9996H11.7777V13.3909C11.7777 11.6483 12.1242 9.96046 14.3888 9.96046C16.6212 9.96046 16.6502 11.9546 16.6502 13.5037V20Z" fill="white"/>
<path d="M0 2.40769C0.000250219 3.73718 1.13013 4.81476 2.52366 4.81452C3.19286 4.8144 3.83459 4.56067 4.3077 4.10914C4.78081 3.65761 5.04653 3.04527 5.04641 2.40683C5.04616 1.07733 3.91628 -0.000238582 2.52275 0C1.12922 0.000238727 -0.000250056 1.0782 0 2.40769Z" fill="white"/>
<path d="M0.345124 20H4.69767V6.6406H0.345124V20Z" fill="white"/>
</svg>
