<svg width="254" height="86" viewBox="0 0 254 86" fill="none" xmlns="http://www.w3.org/2000/svg">
<rect x="0.5" width="128" height="48" fill="white"/>
<rect x="1" y="0.5" width="127" height="47" stroke="#2B2B2B" stroke-opacity="0.431"/>
<path d="M118.543 40H116.896V33.7949C116.295 34.3574 115.586 34.7734 114.77 35.043V33.5488C115.199 33.4082 115.666 33.1426 116.17 32.752C116.674 32.3574 117.02 31.8984 117.207 31.375H118.543V40Z" fill="#FE1616" fill-opacity="0.4"/>
<path d="M20.3926 25.7393L22.3613 25.5479C22.4798 26.2087 22.7191 26.694 23.0791 27.0039C23.4437 27.3138 23.9336 27.4688 24.5488 27.4688C25.2005 27.4688 25.6904 27.332 26.0186 27.0586C26.3512 26.7806 26.5176 26.457 26.5176 26.0879C26.5176 25.8509 26.4469 25.6504 26.3057 25.4863C26.1689 25.3177 25.9274 25.1719 25.5811 25.0488C25.3441 24.9668 24.804 24.821 23.9609 24.6113C22.8763 24.3424 22.1152 24.012 21.6777 23.6201C21.0625 23.0687 20.7549 22.3965 20.7549 21.6035C20.7549 21.0931 20.8984 20.6169 21.1855 20.1748C21.4772 19.7282 21.8942 19.3887 22.4365 19.1562C22.9834 18.9238 23.6419 18.8076 24.4121 18.8076C25.6699 18.8076 26.6156 19.0833 27.249 19.6348C27.887 20.1862 28.222 20.9222 28.2539 21.8428L26.2305 21.9316C26.1439 21.4167 25.957 21.0475 25.6699 20.8242C25.3874 20.5964 24.9613 20.4824 24.3916 20.4824C23.8037 20.4824 23.3434 20.6032 23.0107 20.8447C22.7965 20.9997 22.6895 21.207 22.6895 21.4668C22.6895 21.7038 22.7897 21.9066 22.9902 22.0752C23.2454 22.2894 23.8652 22.5127 24.8496 22.7451C25.834 22.9775 26.5609 23.2191 27.0303 23.4697C27.5042 23.7158 27.8734 24.0553 28.1377 24.4883C28.4066 24.9167 28.541 25.4476 28.541 26.0811C28.541 26.6553 28.3815 27.193 28.0625 27.6943C27.7435 28.1956 27.2923 28.5693 26.709 28.8154C26.1257 29.057 25.3988 29.1777 24.5283 29.1777C23.2614 29.1777 22.2884 28.8861 21.6094 28.3027C20.9303 27.7148 20.5247 26.8604 20.3926 25.7393ZM36.5596 23.8867L34.666 24.2285C34.6022 23.8503 34.4564 23.5654 34.2285 23.374C34.0052 23.1826 33.7135 23.0869 33.3535 23.0869C32.875 23.0869 32.4922 23.2533 32.2051 23.5859C31.9225 23.9141 31.7812 24.4655 31.7812 25.2402C31.7812 26.1016 31.9248 26.71 32.2119 27.0654C32.5036 27.4209 32.8932 27.5986 33.3809 27.5986C33.7454 27.5986 34.0439 27.4961 34.2764 27.291C34.5088 27.0814 34.6729 26.7236 34.7686 26.2178L36.6553 26.5391C36.4593 27.4049 36.0833 28.0589 35.5273 28.501C34.9714 28.943 34.2262 29.1641 33.292 29.1641C32.2301 29.1641 31.3825 28.8291 30.749 28.1592C30.1201 27.4893 29.8057 26.5618 29.8057 25.377C29.8057 24.1784 30.1224 23.2464 30.7559 22.5811C31.3893 21.9111 32.2461 21.5762 33.3262 21.5762C34.2103 21.5762 34.9121 21.7676 35.4316 22.1504C35.9557 22.5286 36.3317 23.1074 36.5596 23.8867ZM39.8613 29H37.9404V21.7402H39.7246V22.7725C40.0299 22.2848 40.3034 21.9635 40.5449 21.8086C40.791 21.6536 41.069 21.5762 41.3789 21.5762C41.8164 21.5762 42.238 21.6969 42.6436 21.9385L42.0488 23.6133C41.7253 23.4036 41.4245 23.2988 41.1465 23.2988C40.8776 23.2988 40.6497 23.374 40.4629 23.5244C40.276 23.6702 40.1279 23.9368 40.0186 24.3242C39.9137 24.7116 39.8613 25.5228 39.8613 26.7578V29ZM47.6816 26.6895L49.5957 27.0107C49.3496 27.7126 48.96 28.248 48.4268 28.6172C47.8981 28.9818 47.235 29.1641 46.4375 29.1641C45.1751 29.1641 44.2409 28.7516 43.6348 27.9268C43.1562 27.266 42.917 26.432 42.917 25.4248C42.917 24.2217 43.2314 23.2806 43.8604 22.6016C44.4893 21.918 45.2845 21.5762 46.2461 21.5762C47.3262 21.5762 48.1784 21.9339 48.8027 22.6494C49.4271 23.3604 49.7256 24.4518 49.6982 25.9238H44.8857C44.8994 26.4935 45.0544 26.9378 45.3506 27.2568C45.6468 27.5713 46.016 27.7285 46.458 27.7285C46.7588 27.7285 47.0117 27.6465 47.2168 27.4824C47.4219 27.3184 47.5768 27.054 47.6816 26.6895ZM47.791 24.748C47.7773 24.1921 47.6338 23.7705 47.3604 23.4834C47.0869 23.1917 46.7542 23.0459 46.3623 23.0459C45.943 23.0459 45.5967 23.1986 45.3232 23.5039C45.0498 23.8092 44.9154 24.224 44.9199 24.748H47.791ZM55.4746 26.6895L57.3887 27.0107C57.1426 27.7126 56.7529 28.248 56.2197 28.6172C55.6911 28.9818 55.028 29.1641 54.2305 29.1641C52.9681 29.1641 52.0339 28.7516 51.4277 27.9268C50.9492 27.266 50.71 26.432 50.71 25.4248C50.71 24.2217 51.0244 23.2806 51.6533 22.6016C52.2822 21.918 53.0775 21.5762 54.0391 21.5762C55.1191 21.5762 55.9714 21.9339 56.5957 22.6494C57.2201 23.3604 57.5186 24.4518 57.4912 25.9238H52.6787C52.6924 26.4935 52.8473 26.9378 53.1436 27.2568C53.4398 27.5713 53.8089 27.7285 54.251 27.7285C54.5518 27.7285 54.8047 27.6465 55.0098 27.4824C55.2148 27.3184 55.3698 27.054 55.4746 26.6895ZM55.584 24.748C55.5703 24.1921 55.4268 23.7705 55.1533 23.4834C54.8799 23.1917 54.5472 23.0459 54.1553 23.0459C53.736 23.0459 53.3896 23.1986 53.1162 23.5039C52.8428 23.8092 52.7083 24.224 52.7129 24.748H55.584ZM65.667 29H63.7461V25.2949C63.7461 24.5111 63.7051 24.0052 63.623 23.7773C63.541 23.5449 63.4066 23.3649 63.2197 23.2373C63.0374 23.1097 62.8164 23.0459 62.5566 23.0459C62.224 23.0459 61.9255 23.137 61.6611 23.3193C61.3968 23.5016 61.2145 23.7432 61.1143 24.0439C61.0186 24.3447 60.9707 24.9007 60.9707 25.7119V29H59.0498V21.7402H60.834V22.8066C61.4674 21.9863 62.265 21.5762 63.2266 21.5762C63.6504 21.5762 64.0378 21.6536 64.3887 21.8086C64.7396 21.959 65.0039 22.1527 65.1816 22.3896C65.3639 22.6266 65.4893 22.8955 65.5576 23.1963C65.6305 23.4971 65.667 23.9277 65.667 24.4883V29ZM78.1221 29H76.2012V25.2949C76.2012 24.5111 76.1602 24.0052 76.0781 23.7773C75.9961 23.5449 75.8617 23.3649 75.6748 23.2373C75.4925 23.1097 75.2715 23.0459 75.0117 23.0459C74.679 23.0459 74.3805 23.137 74.1162 23.3193C73.8519 23.5016 73.6696 23.7432 73.5693 24.0439C73.4736 24.3447 73.4258 24.9007 73.4258 25.7119V29H71.5049V21.7402H73.2891V22.8066C73.9225 21.9863 74.7201 21.5762 75.6816 21.5762C76.1055 21.5762 76.4928 21.6536 76.8438 21.8086C77.1947 21.959 77.459 22.1527 77.6367 22.3896C77.819 22.6266 77.9443 22.8955 78.0127 23.1963C78.0856 23.4971 78.1221 23.9277 78.1221 24.4883V29ZM81.5127 23.9551L79.7695 23.6406C79.9655 22.9388 80.3027 22.4193 80.7812 22.082C81.2598 21.7448 81.9707 21.5762 82.9141 21.5762C83.7708 21.5762 84.4089 21.6787 84.8281 21.8838C85.2474 22.0843 85.5413 22.3418 85.71 22.6562C85.8831 22.9661 85.9697 23.5381 85.9697 24.3721L85.9492 26.6143C85.9492 27.2523 85.9788 27.724 86.0381 28.0293C86.1019 28.3301 86.2181 28.6536 86.3867 29H84.4863C84.4362 28.8724 84.3747 28.6833 84.3018 28.4326C84.2699 28.3187 84.2471 28.2435 84.2334 28.207C83.9053 28.526 83.5544 28.7653 83.1807 28.9248C82.807 29.0843 82.4082 29.1641 81.9844 29.1641C81.237 29.1641 80.6468 28.9613 80.2139 28.5557C79.7855 28.1501 79.5713 27.6374 79.5713 27.0176C79.5713 26.6074 79.6693 26.2428 79.8652 25.9238C80.0612 25.6003 80.3346 25.3542 80.6855 25.1855C81.041 25.0124 81.5514 24.862 82.2168 24.7344C83.1146 24.5658 83.7367 24.4085 84.083 24.2627V24.0713C84.083 23.7021 83.9919 23.4401 83.8096 23.2852C83.6273 23.1257 83.2832 23.0459 82.7773 23.0459C82.4355 23.0459 82.1689 23.1143 81.9775 23.251C81.7861 23.3831 81.6312 23.6178 81.5127 23.9551ZM84.083 25.5137C83.8369 25.5957 83.4473 25.6937 82.9141 25.8076C82.3809 25.9215 82.0322 26.0332 81.8682 26.1426C81.6175 26.3203 81.4922 26.5459 81.4922 26.8193C81.4922 27.0882 81.5924 27.3206 81.793 27.5166C81.9935 27.7126 82.2487 27.8105 82.5586 27.8105C82.9049 27.8105 83.2354 27.6966 83.5498 27.4688C83.7822 27.2956 83.9349 27.0837 84.0078 26.833C84.0579 26.6689 84.083 26.3568 84.083 25.8965V25.5137ZM87.7266 21.7402H89.4971V22.7314C90.1305 21.9613 90.8848 21.5762 91.7598 21.5762C92.2246 21.5762 92.6279 21.6719 92.9697 21.8633C93.3115 22.0547 93.5918 22.3441 93.8105 22.7314C94.1296 22.3441 94.4736 22.0547 94.8428 21.8633C95.2119 21.6719 95.6061 21.5762 96.0254 21.5762C96.5586 21.5762 97.0098 21.6855 97.3789 21.9043C97.748 22.1185 98.0238 22.4352 98.2061 22.8545C98.3382 23.1644 98.4043 23.6657 98.4043 24.3584V29H96.4834V24.8506C96.4834 24.1305 96.4173 23.6657 96.2852 23.4561C96.1074 23.1826 95.834 23.0459 95.4648 23.0459C95.196 23.0459 94.943 23.1279 94.7061 23.292C94.4691 23.4561 94.2982 23.6976 94.1934 24.0166C94.0885 24.3311 94.0361 24.8301 94.0361 25.5137V29H92.1152V25.0215C92.1152 24.3151 92.0811 23.8594 92.0127 23.6543C91.9443 23.4492 91.8372 23.2965 91.6914 23.1963C91.5501 23.096 91.3564 23.0459 91.1104 23.0459C90.8141 23.0459 90.5475 23.1257 90.3105 23.2852C90.0736 23.4447 89.9027 23.6748 89.7979 23.9756C89.6976 24.2764 89.6475 24.7754 89.6475 25.4727V29H87.7266V21.7402ZM104.529 26.6895L106.443 27.0107C106.197 27.7126 105.808 28.248 105.274 28.6172C104.746 28.9818 104.083 29.1641 103.285 29.1641C102.023 29.1641 101.089 28.7516 100.482 27.9268C100.004 27.266 99.7646 26.432 99.7646 25.4248C99.7646 24.2217 100.079 23.2806 100.708 22.6016C101.337 21.918 102.132 21.5762 103.094 21.5762C104.174 21.5762 105.026 21.9339 105.65 22.6494C106.275 23.3604 106.573 24.4518 106.546 25.9238H101.733C101.747 26.4935 101.902 26.9378 102.198 27.2568C102.494 27.5713 102.864 27.7285 103.306 27.7285C103.606 27.7285 103.859 27.6465 104.064 27.4824C104.27 27.3184 104.424 27.054 104.529 26.6895ZM104.639 24.748C104.625 24.1921 104.481 23.7705 104.208 23.4834C103.935 23.1917 103.602 23.0459 103.21 23.0459C102.791 23.0459 102.444 23.1986 102.171 23.5039C101.897 23.8092 101.763 24.224 101.768 24.748H104.639Z" fill="#545351"/>
<line x1="120.5" y1="37.5" x2="169.5" y2="37.5" stroke="#FE1616" stroke-opacity="0.4"/>
<line x1="66.5" y1="64.5" x2="169.5" y2="64.5" stroke="#FE1616" stroke-opacity="0.4"/>
<path d="M171.039 39.2402L172.111 39.1465C172.162 39.5762 172.279 39.9297 172.463 40.207C172.65 40.4805 172.939 40.7031 173.33 40.875C173.721 41.043 174.16 41.127 174.648 41.127C175.082 41.127 175.465 41.0625 175.797 40.9336C176.129 40.8047 176.375 40.6289 176.535 40.4062C176.699 40.1797 176.781 39.9336 176.781 39.668C176.781 39.3984 176.703 39.1641 176.547 38.9648C176.391 38.7617 176.133 38.5918 175.773 38.4551C175.543 38.3652 175.033 38.2266 174.244 38.0391C173.455 37.8477 172.902 37.668 172.586 37.5C172.176 37.2852 171.869 37.0195 171.666 36.7031C171.467 36.3828 171.367 36.0254 171.367 35.6309C171.367 35.1973 171.49 34.793 171.736 34.418C171.982 34.0391 172.342 33.752 172.814 33.5566C173.287 33.3613 173.812 33.2637 174.391 33.2637C175.027 33.2637 175.588 33.3672 176.072 33.5742C176.561 33.7773 176.936 34.0781 177.197 34.4766C177.459 34.875 177.6 35.3262 177.619 35.8301L176.529 35.9121C176.471 35.3691 176.271 34.959 175.932 34.6816C175.596 34.4043 175.098 34.2656 174.438 34.2656C173.75 34.2656 173.248 34.3926 172.932 34.6465C172.619 34.8965 172.463 35.1992 172.463 35.5547C172.463 35.8633 172.574 36.1172 172.797 36.3164C173.016 36.5156 173.586 36.7207 174.508 36.9316C175.434 37.1387 176.068 37.3203 176.412 37.4766C176.912 37.707 177.281 38 177.52 38.3555C177.758 38.707 177.877 39.1133 177.877 39.5742C177.877 40.0312 177.746 40.4629 177.484 40.8691C177.223 41.2715 176.846 41.5859 176.354 41.8125C175.865 42.0352 175.314 42.1465 174.701 42.1465C173.924 42.1465 173.271 42.0332 172.744 41.8066C172.221 41.5801 171.809 41.2402 171.508 40.7871C171.211 40.3301 171.055 39.8145 171.039 39.2402ZM183.355 39.7207L184.393 39.8555C184.279 40.5703 183.988 41.1309 183.52 41.5371C183.055 41.9395 182.482 42.1406 181.803 42.1406C180.951 42.1406 180.266 41.8633 179.746 41.3086C179.23 40.75 178.973 39.9512 178.973 38.9121C178.973 38.2402 179.084 37.6523 179.307 37.1484C179.529 36.6445 179.867 36.2676 180.32 36.0176C180.777 35.7637 181.273 35.6367 181.809 35.6367C182.484 35.6367 183.037 35.8086 183.467 36.1523C183.896 36.4922 184.172 36.9766 184.293 37.6055L183.268 37.7637C183.17 37.3457 182.996 37.0312 182.746 36.8203C182.5 36.6094 182.201 36.5039 181.85 36.5039C181.318 36.5039 180.887 36.6953 180.555 37.0781C180.223 37.457 180.057 38.0586 180.057 38.8828C180.057 39.7188 180.217 40.3262 180.537 40.7051C180.857 41.084 181.275 41.2734 181.791 41.2734C182.205 41.2734 182.551 41.1465 182.828 40.8926C183.105 40.6387 183.281 40.248 183.355 39.7207ZM185.283 42V35.7773H186.232V36.7207C186.475 36.2793 186.697 35.9883 186.9 35.8477C187.107 35.707 187.334 35.6367 187.58 35.6367C187.936 35.6367 188.297 35.75 188.664 35.9766L188.301 36.9551C188.043 36.8027 187.785 36.7266 187.527 36.7266C187.297 36.7266 187.09 36.7969 186.906 36.9375C186.723 37.0742 186.592 37.2656 186.514 37.5117C186.396 37.8867 186.338 38.2969 186.338 38.7422V42H185.283ZM193.551 39.9961L194.641 40.1309C194.469 40.7676 194.15 41.2617 193.686 41.6133C193.221 41.9648 192.627 42.1406 191.904 42.1406C190.994 42.1406 190.271 41.8613 189.736 41.3027C189.205 40.7402 188.939 39.9531 188.939 38.9414C188.939 37.8945 189.209 37.082 189.748 36.5039C190.287 35.9258 190.986 35.6367 191.846 35.6367C192.678 35.6367 193.357 35.9199 193.885 36.4863C194.412 37.0527 194.676 37.8496 194.676 38.877C194.676 38.9395 194.674 39.0332 194.67 39.1582H190.029C190.068 39.8418 190.262 40.3652 190.609 40.7285C190.957 41.0918 191.391 41.2734 191.91 41.2734C192.297 41.2734 192.627 41.1719 192.9 40.9688C193.174 40.7656 193.391 40.4414 193.551 39.9961ZM190.088 38.291H193.562C193.516 37.7676 193.383 37.375 193.164 37.1133C192.828 36.707 192.393 36.5039 191.857 36.5039C191.373 36.5039 190.965 36.666 190.633 36.9902C190.305 37.3145 190.123 37.748 190.088 38.291ZM200.23 39.9961L201.32 40.1309C201.148 40.7676 200.83 41.2617 200.365 41.6133C199.9 41.9648 199.307 42.1406 198.584 42.1406C197.674 42.1406 196.951 41.8613 196.416 41.3027C195.885 40.7402 195.619 39.9531 195.619 38.9414C195.619 37.8945 195.889 37.082 196.428 36.5039C196.967 35.9258 197.666 35.6367 198.525 35.6367C199.357 35.6367 200.037 35.9199 200.564 36.4863C201.092 37.0527 201.355 37.8496 201.355 38.877C201.355 38.9395 201.354 39.0332 201.35 39.1582H196.709C196.748 39.8418 196.941 40.3652 197.289 40.7285C197.637 41.0918 198.07 41.2734 198.59 41.2734C198.977 41.2734 199.307 41.1719 199.58 40.9688C199.854 40.7656 200.07 40.4414 200.23 39.9961ZM196.768 38.291H200.242C200.195 37.7676 200.062 37.375 199.844 37.1133C199.508 36.707 199.072 36.5039 198.537 36.5039C198.053 36.5039 197.645 36.666 197.312 36.9902C196.984 37.3145 196.803 37.748 196.768 38.291ZM202.65 42V35.7773H203.6V36.6621C204.057 35.9785 204.717 35.6367 205.58 35.6367C205.955 35.6367 206.299 35.7051 206.611 35.8418C206.928 35.9746 207.164 36.1504 207.32 36.3691C207.477 36.5879 207.586 36.8477 207.648 37.1484C207.688 37.3438 207.707 37.6855 207.707 38.1738V42H206.652V38.2148C206.652 37.7852 206.611 37.4648 206.529 37.2539C206.447 37.0391 206.301 36.8691 206.09 36.7441C205.883 36.6152 205.639 36.5508 205.357 36.5508C204.908 36.5508 204.52 36.6934 204.191 36.9785C203.867 37.2637 203.705 37.8047 203.705 38.6016V42H202.65ZM212.67 42V35.7773H213.619V36.6621C214.076 35.9785 214.736 35.6367 215.6 35.6367C215.975 35.6367 216.318 35.7051 216.631 35.8418C216.947 35.9746 217.184 36.1504 217.34 36.3691C217.496 36.5879 217.605 36.8477 217.668 37.1484C217.707 37.3438 217.727 37.6855 217.727 38.1738V42H216.672V38.2148C216.672 37.7852 216.631 37.4648 216.549 37.2539C216.467 37.0391 216.32 36.8691 216.109 36.7441C215.902 36.6152 215.658 36.5508 215.377 36.5508C214.928 36.5508 214.539 36.6934 214.211 36.9785C213.887 37.2637 213.725 37.8047 213.725 38.6016V42H212.67ZM223.428 42V41.0859C222.943 41.7891 222.285 42.1406 221.453 42.1406C221.086 42.1406 220.742 42.0703 220.422 41.9297C220.105 41.7891 219.869 41.6133 219.713 41.4023C219.561 41.1875 219.453 40.9258 219.391 40.6172C219.348 40.4102 219.326 40.082 219.326 39.6328V35.7773H220.381V39.2285C220.381 39.7793 220.402 40.1504 220.445 40.3418C220.512 40.6191 220.652 40.8379 220.867 40.998C221.082 41.1543 221.348 41.2324 221.664 41.2324C221.98 41.2324 222.277 41.1523 222.555 40.9922C222.832 40.8281 223.027 40.6074 223.141 40.3301C223.258 40.0488 223.316 39.6426 223.316 39.1113V35.7773H224.371V42H223.428ZM226.029 42V35.7773H226.973V36.6504C227.168 36.3457 227.428 36.1016 227.752 35.918C228.076 35.7305 228.445 35.6367 228.859 35.6367C229.32 35.6367 229.697 35.7324 229.99 35.9238C230.287 36.1152 230.496 36.3828 230.617 36.7266C231.109 36 231.75 35.6367 232.539 35.6367C233.156 35.6367 233.631 35.8086 233.963 36.1523C234.295 36.4922 234.461 37.0176 234.461 37.7285V42H233.412V38.0801C233.412 37.6582 233.377 37.3555 233.307 37.1719C233.24 36.9844 233.117 36.834 232.938 36.7207C232.758 36.6074 232.547 36.5508 232.305 36.5508C231.867 36.5508 231.504 36.6973 231.215 36.9902C230.926 37.2793 230.781 37.7441 230.781 38.3848V42H229.727V37.957C229.727 37.4883 229.641 37.1367 229.469 36.9023C229.297 36.668 229.016 36.5508 228.625 36.5508C228.328 36.5508 228.053 36.6289 227.799 36.7852C227.549 36.9414 227.367 37.1699 227.254 37.4707C227.141 37.7715 227.084 38.2051 227.084 38.7715V42H226.029ZM236.998 42H236.02V33.4102H237.074V36.4746C237.52 35.916 238.088 35.6367 238.779 35.6367C239.162 35.6367 239.523 35.7148 239.863 35.8711C240.207 36.0234 240.488 36.2402 240.707 36.5215C240.93 36.7988 241.104 37.1348 241.229 37.5293C241.354 37.9238 241.416 38.3457 241.416 38.7949C241.416 39.8613 241.152 40.6855 240.625 41.2676C240.098 41.8496 239.465 42.1406 238.727 42.1406C237.992 42.1406 237.416 41.834 236.998 41.2207V42ZM236.986 38.8418C236.986 39.5879 237.088 40.127 237.291 40.459C237.623 41.002 238.072 41.2734 238.639 41.2734C239.1 41.2734 239.498 41.0742 239.834 40.6758C240.17 40.2734 240.338 39.6758 240.338 38.8828C240.338 38.0703 240.176 37.4707 239.852 37.084C239.531 36.6973 239.143 36.5039 238.686 36.5039C238.225 36.5039 237.826 36.7051 237.49 37.1074C237.154 37.5059 236.986 38.084 236.986 38.8418ZM246.965 39.9961L248.055 40.1309C247.883 40.7676 247.564 41.2617 247.1 41.6133C246.635 41.9648 246.041 42.1406 245.318 42.1406C244.408 42.1406 243.686 41.8613 243.15 41.3027C242.619 40.7402 242.354 39.9531 242.354 38.9414C242.354 37.8945 242.623 37.082 243.162 36.5039C243.701 35.9258 244.4 35.6367 245.26 35.6367C246.092 35.6367 246.771 35.9199 247.299 36.4863C247.826 37.0527 248.09 37.8496 248.09 38.877C248.09 38.9395 248.088 39.0332 248.084 39.1582H243.443C243.482 39.8418 243.676 40.3652 244.023 40.7285C244.371 41.0918 244.805 41.2734 245.324 41.2734C245.711 41.2734 246.041 41.1719 246.314 40.9688C246.588 40.7656 246.805 40.4414 246.965 39.9961ZM243.502 38.291H246.977C246.93 37.7676 246.797 37.375 246.578 37.1133C246.242 36.707 245.807 36.5039 245.271 36.5039C244.787 36.5039 244.379 36.666 244.047 36.9902C243.719 37.3145 243.537 37.748 243.502 38.291ZM249.373 42V35.7773H250.322V36.7207C250.564 36.2793 250.787 35.9883 250.99 35.8477C251.197 35.707 251.424 35.6367 251.67 35.6367C252.025 35.6367 252.387 35.75 252.754 35.9766L252.391 36.9551C252.133 36.8027 251.875 36.7266 251.617 36.7266C251.387 36.7266 251.18 36.7969 250.996 36.9375C250.812 37.0742 250.682 37.2656 250.604 37.5117C250.486 37.8867 250.428 38.2969 250.428 38.7422V42H249.373Z" fill="#545351"/>
<path d="M177.555 65.9883L178.691 66.2754C178.453 67.209 178.023 67.9219 177.402 68.4141C176.785 68.9023 176.029 69.1465 175.135 69.1465C174.209 69.1465 173.455 68.959 172.873 68.584C172.295 68.2051 171.854 67.6582 171.549 66.9434C171.248 66.2285 171.098 65.4609 171.098 64.6406C171.098 63.7461 171.268 62.9668 171.607 62.3027C171.951 61.6348 172.438 61.1289 173.066 60.7852C173.699 60.4375 174.395 60.2637 175.152 60.2637C176.012 60.2637 176.734 60.4824 177.32 60.9199C177.906 61.3574 178.314 61.9727 178.545 62.7656L177.426 63.0293C177.227 62.4043 176.938 61.9492 176.559 61.6641C176.18 61.3789 175.703 61.2363 175.129 61.2363C174.469 61.2363 173.916 61.3945 173.471 61.7109C173.029 62.0273 172.719 62.4531 172.539 62.9883C172.359 63.5195 172.27 64.0684 172.27 64.6348C172.27 65.3652 172.375 66.0039 172.586 66.5508C172.801 67.0938 173.133 67.5 173.582 67.7695C174.031 68.0391 174.518 68.1738 175.041 68.1738C175.678 68.1738 176.217 67.9902 176.658 67.623C177.1 67.2559 177.398 66.7109 177.555 65.9883ZM179.57 65.8887C179.57 64.7363 179.891 63.8828 180.531 63.3281C181.066 62.8672 181.719 62.6367 182.488 62.6367C183.344 62.6367 184.043 62.918 184.586 63.4805C185.129 64.0391 185.4 64.8125 185.4 65.8008C185.4 66.6016 185.279 67.2324 185.037 67.6934C184.799 68.1504 184.449 68.5059 183.988 68.7598C183.531 69.0137 183.031 69.1406 182.488 69.1406C181.617 69.1406 180.912 68.8613 180.373 68.3027C179.838 67.7441 179.57 66.9395 179.57 65.8887ZM180.654 65.8887C180.654 66.6855 180.828 67.2832 181.176 67.6816C181.523 68.0762 181.961 68.2734 182.488 68.2734C183.012 68.2734 183.447 68.0742 183.795 67.6758C184.143 67.2773 184.316 66.6699 184.316 65.8535C184.316 65.084 184.141 64.502 183.789 64.1074C183.441 63.709 183.008 63.5098 182.488 63.5098C181.961 63.5098 181.523 63.707 181.176 64.1016C180.828 64.4961 180.654 65.0918 180.654 65.8887ZM186.643 69V62.7773H187.592V63.6621C188.049 62.9785 188.709 62.6367 189.572 62.6367C189.947 62.6367 190.291 62.7051 190.604 62.8418C190.92 62.9746 191.156 63.1504 191.312 63.3691C191.469 63.5879 191.578 63.8477 191.641 64.1484C191.68 64.3438 191.699 64.6855 191.699 65.1738V69H190.645V65.2148C190.645 64.7852 190.604 64.4648 190.521 64.2539C190.439 64.0391 190.293 63.8691 190.082 63.7441C189.875 63.6152 189.631 63.5508 189.35 63.5508C188.9 63.5508 188.512 63.6934 188.184 63.9785C187.859 64.2637 187.697 64.8047 187.697 65.6016V69H186.643ZM193.322 69V62.7773H194.271V63.6621C194.729 62.9785 195.389 62.6367 196.252 62.6367C196.627 62.6367 196.971 62.7051 197.283 62.8418C197.6 62.9746 197.836 63.1504 197.992 63.3691C198.148 63.5879 198.258 63.8477 198.32 64.1484C198.359 64.3438 198.379 64.6855 198.379 65.1738V69H197.324V65.2148C197.324 64.7852 197.283 64.4648 197.201 64.2539C197.119 64.0391 196.973 63.8691 196.762 63.7441C196.555 63.6152 196.311 63.5508 196.029 63.5508C195.58 63.5508 195.191 63.6934 194.863 63.9785C194.539 64.2637 194.377 64.8047 194.377 65.6016V69H193.322ZM204.262 66.9961L205.352 67.1309C205.18 67.7676 204.861 68.2617 204.396 68.6133C203.932 68.9648 203.338 69.1406 202.615 69.1406C201.705 69.1406 200.982 68.8613 200.447 68.3027C199.916 67.7402 199.65 66.9531 199.65 65.9414C199.65 64.8945 199.92 64.082 200.459 63.5039C200.998 62.9258 201.697 62.6367 202.557 62.6367C203.389 62.6367 204.068 62.9199 204.596 63.4863C205.123 64.0527 205.387 64.8496 205.387 65.877C205.387 65.9395 205.385 66.0332 205.381 66.1582H200.74C200.779 66.8418 200.973 67.3652 201.32 67.7285C201.668 68.0918 202.102 68.2734 202.621 68.2734C203.008 68.2734 203.338 68.1719 203.611 67.9688C203.885 67.7656 204.102 67.4414 204.262 66.9961ZM200.799 65.291H204.273C204.227 64.7676 204.094 64.375 203.875 64.1133C203.539 63.707 203.104 63.5039 202.568 63.5039C202.084 63.5039 201.676 63.666 201.344 63.9902C201.016 64.3145 200.834 64.748 200.799 65.291ZM210.742 66.7207L211.779 66.8555C211.666 67.5703 211.375 68.1309 210.906 68.5371C210.441 68.9395 209.869 69.1406 209.189 69.1406C208.338 69.1406 207.652 68.8633 207.133 68.3086C206.617 67.75 206.359 66.9512 206.359 65.9121C206.359 65.2402 206.471 64.6523 206.693 64.1484C206.916 63.6445 207.254 63.2676 207.707 63.0176C208.164 62.7637 208.66 62.6367 209.195 62.6367C209.871 62.6367 210.424 62.8086 210.854 63.1523C211.283 63.4922 211.559 63.9766 211.68 64.6055L210.654 64.7637C210.557 64.3457 210.383 64.0312 210.133 63.8203C209.887 63.6094 209.588 63.5039 209.236 63.5039C208.705 63.5039 208.273 63.6953 207.941 64.0781C207.609 64.457 207.443 65.0586 207.443 65.8828C207.443 66.7188 207.604 67.3262 207.924 67.7051C208.244 68.084 208.662 68.2734 209.178 68.2734C209.592 68.2734 209.938 68.1465 210.215 67.8926C210.492 67.6387 210.668 67.248 210.742 66.7207ZM214.984 68.0566L215.137 68.9883C214.84 69.0508 214.574 69.082 214.34 69.082C213.957 69.082 213.66 69.0215 213.449 68.9004C213.238 68.7793 213.09 68.6211 213.004 68.4258C212.918 68.2266 212.875 67.8105 212.875 67.1777V63.5977H212.102V62.7773H212.875V61.2363L213.924 60.6035V62.7773H214.984V63.5977H213.924V67.2363C213.924 67.5371 213.941 67.7305 213.977 67.8164C214.016 67.9023 214.076 67.9707 214.158 68.0215C214.244 68.0723 214.365 68.0977 214.521 68.0977C214.639 68.0977 214.793 68.084 214.984 68.0566ZM215.629 65.8887C215.629 64.7363 215.949 63.8828 216.59 63.3281C217.125 62.8672 217.777 62.6367 218.547 62.6367C219.402 62.6367 220.102 62.918 220.645 63.4805C221.188 64.0391 221.459 64.8125 221.459 65.8008C221.459 66.6016 221.338 67.2324 221.096 67.6934C220.857 68.1504 220.508 68.5059 220.047 68.7598C219.59 69.0137 219.09 69.1406 218.547 69.1406C217.676 69.1406 216.971 68.8613 216.432 68.3027C215.896 67.7441 215.629 66.9395 215.629 65.8887ZM216.713 65.8887C216.713 66.6855 216.887 67.2832 217.234 67.6816C217.582 68.0762 218.02 68.2734 218.547 68.2734C219.07 68.2734 219.506 68.0742 219.854 67.6758C220.201 67.2773 220.375 66.6699 220.375 65.8535C220.375 65.084 220.199 64.502 219.848 64.1074C219.5 63.709 219.066 63.5098 218.547 63.5098C218.02 63.5098 217.582 63.707 217.234 64.1016C216.887 64.4961 216.713 65.0918 216.713 65.8887ZM222.689 69V62.7773H223.639V63.7207C223.881 63.2793 224.104 62.9883 224.307 62.8477C224.514 62.707 224.74 62.6367 224.986 62.6367C225.342 62.6367 225.703 62.75 226.07 62.9766L225.707 63.9551C225.449 63.8027 225.191 63.7266 224.934 63.7266C224.703 63.7266 224.496 63.7969 224.312 63.9375C224.129 64.0742 223.998 64.2656 223.92 64.5117C223.803 64.8867 223.744 65.2969 223.744 65.7422V69H222.689Z" fill="#545351"/>
<line x1="64" y1="47" x2="64" y2="79" stroke="#999999"/>
</svg>
